<?xml version="1.0" encoding="UTF-8"?>
<svg version="1.1" xmlns="http://www.w3.org/2000/svg" width="951" height="262">
<path d="M0 0 C1.10948502 -0.01283524 2.21897003 -0.02567047 3.36207581 -0.03889465 C4.57540085 -0.04628159 5.78872589 -0.05366852 7.03881836 -0.0612793 C8.28682724 -0.06935104 9.53483612 -0.07742279 10.82066345 -0.08573914 C13.47813648 -0.09961328 16.13548418 -0.11061526 18.79296875 -0.11816406 C21.49014509 -0.12693498 24.18679112 -0.14758333 26.88378906 -0.1796875 C61.34887572 -0.56024703 61.34887572 -0.56024703 77.06616211 7.80200195 C77.72108643 8.14263672 78.37601074 8.48327148 79.05078125 8.83422852 C96.55918271 18.31483484 108.6847976 34.57048259 114.69116211 53.42700195 C119.28118215 72.78491258 116.93481584 93.82233188 106.56616211 110.92700195 C95.53968697 127.09916549 80.34716868 138.56682432 61.31616211 143.55200195 C54.59629461 144.76184111 47.62505415 144.85953214 40.81616211 145.17700195 C40.32116211 142.70200195 40.32116211 142.70200195 39.81616211 140.17700195 C39.0775293 140.2234082 38.33889648 140.26981445 37.57788086 140.31762695 C26.28249535 140.71949581 17.19331317 137.88603667 8.81616211 130.17700195 C-0.3824051 121.23160631 -4.63225178 111.78584143 -5.30102539 98.9230957 C-5.30741933 97.34059519 -5.25410246 95.75795472 -5.18383789 94.17700195 C-5.96887695 93.82508789 -6.75391602 93.47317383 -7.56274414 93.1105957 C-18.69596386 87.87866546 -24.41501562 82.53134068 -29.18383789 71.17700195 C-29.50481445 70.42161133 -29.82579102 69.6662207 -30.15649414 68.88793945 C-31.98096932 64.08490248 -32.28561221 60.15335363 -32.08618164 55.0559082 C-32.25137033 50.18614575 -33.50286645 45.5142462 -34.62524414 40.7902832 C-35.45504764 35.42267317 -35.08083586 31.60659247 -32.18383789 26.98950195 C-29.34587946 23.86774768 -25.95034747 22.45955621 -22.07446289 20.9387207 C-20.20542887 20.32913573 -20.20542887 20.32913573 -19.18383789 19.17700195 C-15.15223598 18.91407139 -13.62491055 18.88295352 -10.18383789 21.17700195 C-9.78540039 23.05200195 -9.78540039 23.05200195 -9.80883789 25.17700195 C-9.80110352 25.87825195 -9.79336914 26.57950195 -9.78540039 27.30200195 C-10.18383789 29.17700195 -10.18383789 29.17700195 -13.18383789 31.17700195 C-16.627223 31.36830113 -19.62631849 31.30089515 -22.99633789 30.55200195 C-23.71821289 30.42825195 -24.44008789 30.30450195 -25.18383789 30.17700195 C-27.5318305 32.09113365 -27.5318305 32.09113365 -27.43383789 35.42700195 C-27.24985597 41.65938949 -26.85602154 48.166606 -25.18383789 54.17700195 C-23.86553517 54.87291873 -22.53131341 55.53940338 -21.18383789 56.17700195 C-20.12915039 58.8996582 -20.12915039 58.8996582 -19.30883789 62.23950195 C-17.27175625 69.45316752 -14.63494014 75.54759071 -8.55883789 80.17700195 C-2.69189287 82.64729459 3.97168753 83.5428898 10.07006836 81.3762207 C18.75853747 76.57860304 21.21827625 67.70861533 23.82397461 58.6809082 C24.81616211 56.17700195 24.81616211 56.17700195 27.81616211 54.17700195 C30.04470871 46.75248573 30.08852337 38.86364204 29.81616211 31.17700195 C26.23288458 30.17483131 26.23288458 30.17483131 22.81616211 31.17700195 C19.37866211 31.55200195 19.37866211 31.55200195 15.81616211 31.17700195 C13.81616211 28.98950195 13.81616211 28.98950195 12.81616211 26.17700195 C13.12866211 23.55200195 13.12866211 23.55200195 13.81616211 21.17700195 C13.81616211 20.18700195 13.81616211 19.19700195 13.81616211 18.17700195 C13.15616211 18.17700195 12.49616211 18.17700195 11.81616211 18.17700195 C11.81251648 18.83210754 11.80887085 19.48721313 11.80511475 20.16217041 C11.76333098 26.97558167 11.69401413 33.7883167 11.60864258 40.60131836 C11.58040255 43.14454386 11.55920321 45.68785762 11.54516602 48.23120117 C11.52377934 51.88547048 11.4771482 55.5386751 11.42553711 59.19262695 C11.42369415 60.90062469 11.42369415 60.90062469 11.42181396 62.64312744 C11.40209534 63.70392517 11.38237671 64.7647229 11.36206055 65.85766602 C11.34873688 67.25665131 11.34873688 67.25665131 11.33514404 68.68389893 C10.65961259 71.92903984 9.37862305 73.13751317 6.81616211 75.17700195 C4.12475586 75.6730957 4.12475586 75.6730957 1.25366211 75.61450195 C0.30362305 75.61321289 -0.64641602 75.61192383 -1.62524414 75.6105957 C-4.65722925 75.09677838 -5.37082887 74.61797684 -7.18383789 72.17700195 C-7.55133057 69.56773376 -7.55133057 69.56773376 -7.5402832 66.39550781 C-7.5432843 65.20674545 -7.5462854 64.01798309 -7.54937744 62.79319763 C-7.53703064 61.5057515 -7.52468384 60.21830536 -7.51196289 58.8918457 C-7.50890218 57.55245679 -7.50702843 56.21306469 -7.50628662 54.87367249 C-7.50168144 52.06165428 -7.48725947 49.24992208 -7.46508789 46.43798828 C-7.43699638 42.85965534 -7.425895 39.28154913 -7.42140579 35.70311642 C-7.41620491 32.26599782 -7.40168546 28.82893423 -7.38696289 25.3918457 C-7.38271301 24.11856918 -7.37846313 22.84529266 -7.37408447 21.53343201 C-7.20379755 0.07237151 -7.20379755 0.07237151 0 0 Z M23.81616211 17.17700195 C23.52715344 20.07535307 23.52715344 20.07535307 24.87866211 21.67700195 C26.93704535 23.40789715 26.93704535 23.40789715 30.31616211 24.61450195 C35.32878689 26.85228087 35.32878689 26.85228087 36.81616211 30.17700195 C37.51461539 37.0451259 36.16305921 43.52355665 34.79614258 50.23632812 C33.93601062 54.21540145 33.93601062 54.21540145 34.33251953 58.20214844 C35.13189982 61.466251 33.76801092 64.3515431 32.69116211 67.42700195 C32.45961426 68.09723389 32.22806641 68.76746582 31.98950195 69.45800781 C28.69794087 78.65317897 24.2567519 85.86939444 15.36694336 90.43481445 C13.20130727 91.40714086 11.03087856 92.32325638 8.81616211 93.17700195 C8.39281029 101.92627286 9.27500567 109.53140783 15.00366211 116.48950195 C22.41080085 124.17557061 31.48304884 128.24298424 42.19116211 128.48950195 C59.4510518 127.90688964 74.44781177 122.15616589 86.56616211 109.55200195 C94.81979173 99.50842856 99.21400071 87.32044528 99.12866211 74.42700195 C99.12302246 73.53883789 99.11738281 72.65067383 99.11157227 71.7355957 C98.98982989 65.1494539 98.33942929 59.3172719 95.81616211 53.17700195 C95.42557617 52.20762695 95.03499023 51.23825195 94.63256836 50.23950195 C88.34163356 36.26756743 77.74128162 26.9016582 63.81616211 20.86450195 C54.37432597 17.46772581 45.09034062 16.89339593 35.12866211 17.05200195 C34.03360352 17.06102539 32.93854492 17.07004883 31.81030273 17.0793457 C29.14534857 17.10262041 26.48088077 17.1353106 23.81616211 17.17700195 Z " fill="#F8A436" transform="translate(215.183837890625,56.822998046875)"/>
<path d="M0 0 C6.0225 -0.0825 12.045 -0.165 18.25 -0.25 C20.12461914 -0.28641602 21.99923828 -0.32283203 23.93066406 -0.36035156 C35.72150058 -0.49291327 46.35338428 0.42051622 56 8 C56.99 8.70125 57.98 9.4025 59 10.125 C65.48352117 15.63599299 69.53414327 24.35614396 70.37109375 32.69921875 C70.56760455 44.50142606 68.38720129 53.36779387 60.0078125 62.21875 C47.55791209 73.26379783 34.11704762 73.4146454 18.375 73.1875 C12.31125 73.125625 6.2475 73.06375 0 73 C0 48.91 0 24.82 0 0 Z M17 15 C15.8265073 24.22161978 15.88629585 33.34835321 15.9375 42.625 C15.94252605 44.21744651 15.947087 45.80989455 15.95117188 47.40234375 C15.96208763 51.26826779 15.97929105 55.13411653 16 59 C18.20829421 59.02041916 20.416644 59.03487307 22.625 59.046875 C23.85476563 59.05557617 25.08453125 59.06427734 26.3515625 59.07324219 C36.05922344 58.87836141 42.75498919 57.24501081 49.75 50.25 C53.72527843 44.50793115 54.56035621 39.11420053 53.5390625 32.23828125 C52.05723982 26.08549577 49.43947802 21.4154862 44 18 C34.88300772 13.3554945 26.88141282 13.92951361 17 15 Z " fill="#E9932B" transform="translate(377,87)"/>
<path d="M0 0 C1.03664923 -0.00218016 1.03664923 -0.00218016 2.09424087 -0.00440437 C4.4391994 -0.00809026 6.78409397 -0.00456605 9.12905216 -0.0011425 C10.81553352 -0.0022933 12.50201464 -0.00388055 14.18849522 -0.00586975 C18.84562507 -0.01006877 23.50273459 -0.00796981 28.15986454 -0.00488353 C33.17356675 -0.00263195 38.18726533 -0.00610784 43.20096684 -0.00886345 C53.03209844 -0.01332284 62.86322244 -0.0123439 72.69435435 -0.00945081 C80.68106194 -0.00719731 88.66776739 -0.00688402 96.65447521 -0.00797462 C98.35608993 -0.00820447 98.35608993 -0.00820447 100.0920807 -0.00843897 C102.39624071 -0.00875868 104.70040071 -0.00908289 107.00456072 -0.00941156 C128.6388785 -0.01226688 150.27319206 -0.00897858 171.90750916 -0.00361119 C190.49015309 0.00085629 209.07279078 0.00008147 227.65543461 -0.00452995 C249.20797375 -0.00987584 270.76050918 -0.01199155 292.3130489 -0.00891769 C294.60929175 -0.00859912 296.9055346 -0.00828475 299.20177746 -0.00797462 C300.33172215 -0.00782035 301.46166683 -0.00766607 302.62585227 -0.00750712 C310.60690472 -0.00664196 318.58795483 -0.00810483 326.56900692 -0.01045418 C336.28967071 -0.01325256 346.01032641 -0.01251313 355.73098927 -0.00717343 C360.69517671 -0.00453685 365.65935066 -0.00353064 370.62353802 -0.00682259 C375.161466 -0.00978645 379.6993679 -0.0081912 384.23729349 -0.00284503 C385.88533647 -0.00172123 387.53338163 -0.00231123 389.18142324 -0.00472082 C391.40905663 -0.00772981 393.6365988 -0.00467506 395.86422729 0 C397.1053707 0.00016235 398.34651411 0.0003247 399.62526792 0.00049198 C402.49503422 0.12584114 402.49503422 0.12584114 404.49503422 1.12584114 C404.49503422 3.10584114 404.49503422 5.08584114 404.49503422 7.12584114 C268.53503422 7.12584114 132.57503422 7.12584114 -7.50496578 7.12584114 C-7.50496578 -0.96437418 -7.25085591 0.0009486 0 0 Z " fill="#CFCFCF" transform="translate(383.5049657821655,179.87415885925293)"/>
<path d="M0 0 C8.51727832 6.79155526 11.92240104 16.19410097 13.91796875 26.6796875 C14.28597058 34.79803079 12.03358778 43.12978821 6.49609375 49.234375 C-1.68244194 56.72461808 -9.80623836 59.21114715 -20.8046875 58.984375 C-30.05832669 58.12408435 -37.01010399 53.58016696 -43.08203125 46.6796875 C-48.22872247 39.60472113 -48.07611427 31.08266277 -47.08203125 22.6796875 C-44.18113381 11.98191158 -39.72569065 3.46588314 -30.08203125 -2.3203125 C-19.6896212 -7.16284912 -9.67968818 -6.13833885 0 0 Z M-29.515625 20.41015625 C-32.0600886 24.82114678 -32.5526818 28.57491433 -31.69140625 33.5703125 C-30.44056835 37.90013601 -28.24973977 40.70659707 -24.83203125 43.5546875 C-20.48793963 45.33181589 -16.42993633 45.45050917 -12.01171875 44 C-10.34031892 43.2894859 -8.70644688 42.49189531 -7.08203125 41.6796875 C-7.08203125 41.0196875 -7.08203125 40.3596875 -7.08203125 39.6796875 C-6.42203125 39.6796875 -5.76203125 39.6796875 -5.08203125 39.6796875 C-2.25037176 34.87376342 -2.60188255 30.10300644 -3.08203125 24.6796875 C-4.36694309 20.26280305 -5.97429405 18.47093712 -9.89453125 16.3046875 C-16.99184768 13.22789094 -24.39565029 14.2299143 -29.515625 20.41015625 Z " fill="#CFCECE" transform="translate(501.08203125,102.3203125)"/>
<path d="M0 0 C8.21857662 5.61941546 12.05241679 12.53555709 14.46875 22.00390625 C15.35117018 26.98049656 15.43762428 31.9673208 15 37 C14 38 14 38 10.39819336 38.11352539 C8.79540144 38.11336625 7.1926044 38.10767063 5.58984375 38.09765625 C4.74780899 38.0962413 3.90577423 38.09482635 3.03822327 38.09336853 C0.33794665 38.08775263 -2.36224828 38.07519748 -5.0625 38.0625 C-6.88867068 38.05748705 -8.71484266 38.05292379 -10.54101562 38.04882812 C-15.02737542 38.03777804 -19.51367384 38.02050279 -24 38 C-21.89980097 42.79954135 -21.89980097 42.79954135 -17.75 45.875 C-12.04583591 47.58624923 -8.13036695 47.76082508 -2.8125 45.0625 C-2.17957031 44.70285156 -1.54664063 44.34320313 -0.89453125 43.97265625 C1.11919369 42.93880571 2.74843565 42.27402406 5 42 C8.23124812 44.69270677 10.23770311 47.22480438 12 51 C3.19577597 58.4387541 -3.05911682 61.66822971 -14.75390625 61.34375 C-23.3680159 60.43154585 -30.31741926 56.50937655 -36 50 C-41.08127091 41.98779311 -41.80659847 34.37905202 -41 25 C-38.756337 15.01884497 -34.62753495 6.30609349 -25.84765625 0.6015625 C-17.30095605 -3.88664878 -8.77464964 -4.26671108 0 0 Z M-23 20 C-24.78229676 22.67344514 -25 23.73770359 -25 27 C-16.75 27 -8.5 27 0 27 C-2.91689636 19.62816884 -2.91689636 19.62816884 -9 16 C-14.76247813 14.88431062 -18.49367256 16.13743363 -23 20 Z " fill="#CFCFCF" transform="translate(672,100)"/>
<path d="M0 0 C5.9861532 5.31301148 9.36565272 11.31915962 10.26213074 19.3474884 C10.34347378 21.78026414 10.33845162 24.19524011 10.29296875 26.62890625 C10.28872391 27.50401352 10.28447906 28.37912079 10.28010559 29.28074646 C10.26347981 32.04166072 10.22585966 34.80181105 10.1875 37.5625 C10.17243228 39.44855707 10.15874756 41.33462573 10.14648438 43.22070312 C10.11362937 47.81409083 10.06196135 52.40691647 10 57 C6.85069107 58.04976964 4.61185544 58.10131595 1.3125 58.0625 C0.31863281 58.05347656 -0.67523437 58.04445312 -1.69921875 58.03515625 C-2.83810547 58.01775391 -2.83810547 58.01775391 -4 58 C-4.66 56.35 -5.32 54.7 -6 53 C-6.51949219 53.34933594 -7.03898438 53.69867188 -7.57421875 54.05859375 C-14.63241107 58.66403162 -14.63241107 58.66403162 -19 59 C-20.0725 59.0825 -21.145 59.165 -22.25 59.25 C-28.57612267 58.82825849 -33.9508908 57.59141114 -38.4375 52.875 C-41.42126541 48.91609338 -42.86306163 44.96401577 -43 40 C-42.1587653 34.23754229 -39.32715236 30.83360855 -34.9140625 27.2265625 C-30.82938104 24.60903193 -27.30659451 23.75076431 -22.48046875 23.8046875 C-20.9480957 23.81435547 -20.9480957 23.81435547 -19.38476562 23.82421875 C-18.32966797 23.84097656 -17.27457031 23.85773438 -16.1875 23.875 C-15.11306641 23.88402344 -14.03863281 23.89304687 -12.93164062 23.90234375 C-10.28753146 23.92584694 -7.64388128 23.95870425 -5 24 C-6.74165393 19.81462346 -6.74165393 19.81462346 -9.8359375 16.640625 C-17.58105188 14.34784746 -26.3358396 16.10091601 -34 18 C-34.86846831 16.25705322 -35.71930627 14.50531337 -36.5625 12.75 C-37.03816406 11.77546875 -37.51382813 10.8009375 -38.00390625 9.796875 C-39 7 -39 7 -38.88671875 4.8046875 C-36.83141222 0.62164073 -31.46266193 -1.28650638 -27.4375 -3.25 C-18.19441367 -6.09402656 -8.02530055 -5.7609004 0 0 Z M-26 37 C-26.83333333 40.5 -26.83333333 40.5 -26 44 C-23.11732778 46.79258871 -21.048818 46.99457578 -17.0625 47.4375 C-12.4627949 47.28069187 -9.24416284 45.24416284 -6 42 C-5.92851801 40.64756083 -5.91600546 39.29165633 -5.9375 37.9375 C-5.958125 36.638125 -5.97875 35.33875 -6 34 C-8.39652528 33.91860858 -10.79025436 33.85932991 -13.1875 33.8125 C-14.19780273 33.77479492 -14.19780273 33.77479492 -15.22851562 33.73632812 C-19.66851391 33.67135254 -22.55052085 34.12871926 -26 37 Z " fill="#CFCECD" transform="translate(777,102)"/>
<path d="M0 0 C3.93977589 3.71442382 7.6221262 7.64160188 9 13 C9 13.99 9 14.98 9 16 C7.42466914 16.86883706 5.83935491 17.71959068 4.25 18.5625 C3.36828125 19.03816406 2.4865625 19.51382813 1.578125 20.00390625 C-1.23496785 21.09078303 -2.26255675 21.14912453 -5 20 C-5.556875 19.505 -6.11375 19.01 -6.6875 18.5 C-10.24626741 16.19161033 -13.80131521 15.87255257 -18 16 C-21.93958142 16.98300496 -25.52108875 18.694785 -28 22 C-29.9010287 27.70308611 -29.58626231 33.58116469 -27 39 C-23.37180395 42.44213471 -20.70955781 43.87097677 -15.6875 44.25 C-11.66236811 43.9771097 -9.39690293 43.13293905 -6 41 C-5.34 40.01 -4.68 39.02 -4 38 C0.8274799 39.41292095 4.7162359 41.42974154 9 44 C6.01723882 50.15194493 0.55043256 55.14893269 -5.6875 57.9375 C-13.59310042 60.42745289 -22.56010725 60.16990285 -29.9375 56.33203125 C-36.90070647 51.83496041 -42.89303542 46.35615805 -45.25 38.1875 C-47.49198996 27.2449435 -44.80590742 17.22682421 -39.6484375 7.43359375 C-35.10762503 0.74921338 -27.94285403 -3.15918127 -20.09765625 -4.78125 C-12.85508241 -5.53652772 -5.94778144 -4.30998655 0 0 Z " fill="#CFCFCF" transform="translate(566,102)"/>
<path d="M0 0 C-0.67097672 4.19360449 -2.8558394 7.40334352 -5 11 C-5.57105469 10.79503906 -6.14210938 10.59007813 -6.73046875 10.37890625 C-13.79586515 8.03126261 -20.58380566 7.33709974 -28 7 C-28 8.98 -28 10.96 -28 13 C-27.24976563 13.17015625 -26.49953125 13.3403125 -25.7265625 13.515625 C-5.45663011 18.31505484 -5.45663011 18.31505484 1 28 C1.682748 33.50167865 1.72477456 38.4389471 -0.625 43.5 C-6.68521193 49.87917045 -13.29438528 52.00316749 -21.875 52.3125 C-30.71547299 52.09555588 -37.85361282 49.05037977 -45 44 C-44.10950811 39.76313335 -42.20552339 36.69958761 -40 33 C-37.19429075 34.1052794 -34.47023172 35.25469629 -31.75 36.5625 C-26.61094181 38.76174761 -21.3291993 39.71302019 -15.9375 38.0625 C-14.9784375 37.5365625 -14.9784375 37.5365625 -14 37 C-14.495 34.525 -14.495 34.525 -15 32 C-16.134375 31.69707031 -17.26875 31.39414063 -18.4375 31.08203125 C-37.13037165 25.94573899 -37.13037165 25.94573899 -42 19.25 C-43.69379962 13.74515124 -44.09229549 8.5382828 -41.5 3.25 C-38.62818532 -1.16028683 -34.05868339 -4.01595637 -29.09375 -5.61328125 C-18.99181301 -7.47912409 -8.5831971 -5.7221314 0 0 Z " fill="#D0D0CF" transform="translate(624,109)"/>
<path d="M0 0 C13.86583184 3.86762075 13.86583184 3.86762075 19 8 C19.99 8.70125 20.98 9.4025 22 10.125 C28.48352117 15.63599299 32.53414327 24.35614396 33.37109375 32.69921875 C33.56760455 44.50142606 31.38720129 53.36779387 23.0078125 62.21875 C11.94364153 72.03443475 0.23171076 73.51234159 -14 73 C-12.625 71.5 -12.625 71.5 -11 70 C-10.34 70 -9.68 70 -9 70 C-8.73067479 65.34947128 -8.73067479 65.34947128 -10 61 C-12.52733235 60.34444881 -12.52733235 60.34444881 -15 60 C-14.67 59.34 -14.34 58.68 -14 58 C-11.82013183 57.76633706 -9.62851454 57.63917389 -7.4375 57.5625 C0.11625937 57.09470373 5.92844629 56.5326844 11.375 50.8125 C15.2644917 45.7572206 16.2971504 40.7997829 15.875 34.5 C15.03837773 29.04785486 13.47271012 24.24999489 9.30859375 20.4609375 C4.26351724 16.97524828 -0.99233797 15.82482245 -7 15 C-7 14.67 -7 14.34 -7 14 C-3.92382812 13.70703125 -3.92382812 13.70703125 -0.84765625 13.4140625 C0.06693359 13.20910156 0.06693359 13.20910156 1 13 C2.5121867 9.97562661 2.17263369 7.33758466 2 4 C1.04672094 1.82143186 1.04672094 1.82143186 0 0 Z " fill="#D1D0D0" transform="translate(414,87)"/>
<path d="M0 0 C0 5.28 0 10.56 0 16 C-1.36125 16.2475 -2.7225 16.495 -4.125 16.75 C-8.46268306 17.72683256 -11.56640266 19.06888032 -15 22 C-16.77858414 25.57890484 -17.26487076 28.55584179 -17.34375 32.52734375 C-17.38822266 34.08678711 -17.38822266 34.08678711 -17.43359375 35.67773438 C-17.45550781 36.75345703 -17.47742188 37.82917969 -17.5 38.9375 C-17.76325998 51.81401003 -17.76325998 51.81401003 -20 57 C-22.14576637 57.02685938 -24.29162645 57.04633088 -26.4375 57.0625 C-27.63246094 57.07410156 -28.82742188 57.08570313 -30.05859375 57.09765625 C-33 57 -33 57 -34 56 C-34.0935919 54.28134591 -34.11744611 52.55884256 -34.11352539 50.83764648 C-34.11344986 49.73658066 -34.11337433 48.63551483 -34.11329651 47.50108337 C-34.10813522 46.3031868 -34.10297394 45.10529022 -34.09765625 43.87109375 C-34.0962413 42.65172623 -34.09482635 41.4323587 -34.09336853 40.17604065 C-34.08774967 36.2631693 -34.07519396 32.35035419 -34.0625 28.4375 C-34.05748743 25.79231853 -34.0529241 23.14713617 -34.04882812 20.50195312 C-34.03777411 14.00128026 -34.02049683 7.50064968 -34 1 C-29.05 1 -24.1 1 -19 1 C-18.34 2.98 -17.68 4.96 -17 7 C-16.113125 6.21625 -15.22625 5.4325 -14.3125 4.625 C-9.44066495 0.59746424 -6.50815326 0 0 0 Z " fill="#CFCFCF" transform="translate(731,103)"/>
<path d="M0 0 C2.19582938 7.9423616 3.73849414 15.89671886 4.99731445 24.03076172 C5.5769548 28.13858727 5.5769548 28.13858727 7 32 C7.66 30.68 8.32 29.36 9 28 C12.31248187 27.97111854 15.62493167 27.95324201 18.9375 27.9375 C19.88302734 27.92912109 20.82855469 27.92074219 21.80273438 27.91210938 C23.15141602 27.90727539 23.15141602 27.90727539 24.52734375 27.90234375 C25.77632446 27.89448853 25.77632446 27.89448853 27.05053711 27.88647461 C29 28 29 28 30 29 C30.125 31.5 30.125 31.5 30 34 C29 35 29 35 25.62109375 35.09765625 C24.22652923 35.09098369 22.83198257 35.07902532 21.4375 35.0625 C20.72658203 35.05798828 20.01566406 35.05347656 19.28320312 35.04882812 C17.52209987 35.03700864 15.76103964 35.01907263 14 35 C13.81824219 35.92941406 13.63648438 36.85882813 13.44921875 37.81640625 C12.15074406 44.20223816 10.92195712 50.15608576 8 56 C6.35 55.67 4.7 55.34 3 55 C0.94281357 49.5110945 -0.03361707 43.93437843 -1.0625 38.1875 C-1.40399636 36.28451473 -1.74886244 34.38213001 -2.09765625 32.48046875 C-2.32207397 31.22592896 -2.32207397 31.22592896 -2.55102539 29.94604492 C-2.81761909 28.00569906 -2.81761909 28.00569906 -4 27 C-4.474375 28.134375 -4.94875 29.26875 -5.4375 30.4375 C-7 34 -7 34 -8 35 C-9.41570123 35.08651611 -10.835595 35.10704904 -12.25390625 35.09765625 C-13.10791016 35.09443359 -13.96191406 35.09121094 -14.84179688 35.08789062 C-15.73962891 35.07951172 -16.63746094 35.07113281 -17.5625 35.0625 C-18.46419922 35.05798828 -19.36589844 35.05347656 -20.29492188 35.04882812 C-22.53001314 35.03700225 -24.76497437 35.0205222 -27 35 C-26.125 29.125 -26.125 29.125 -25 28 C-22.81360547 27.92741054 -20.62499611 27.91626217 -18.4375 27.9375 C-16.64119141 27.95103516 -16.64119141 27.95103516 -14.80859375 27.96484375 C-13.88175781 27.97644531 -12.95492188 27.98804688 -12 28 C-11.88527344 27.06929687 -11.77054687 26.13859375 -11.65234375 25.1796875 C-10.92357498 20.09495638 -9.73955185 15.12146499 -8.5625 10.125 C-8.34529297 9.16335937 -8.12808594 8.20171875 -7.90429688 7.2109375 C-7.68966797 6.29828125 -7.47503906 5.385625 -7.25390625 4.4453125 C-7.06127197 3.61531738 -6.8686377 2.78532227 -6.67016602 1.93017578 C-5.3793439 -1.78758001 -3.1962683 -0.95888049 0 0 Z " fill="#F09F3A" transform="translate(270,114)"/>
<path d="M0 0 C4.4780021 3.15407105 8.90195658 6.82482623 11 12 C10.6875 14.3125 10.6875 14.3125 10 16 C9.34 15.01 8.68 14.02 8 13 C5.54775306 13.10613836 5.54775306 13.10613836 3 14 C2.28272222 15.64551962 1.61674772 17.31422289 1 19 C-1.125 20.3125 -1.125 20.3125 -3 21 C-3.825 20.34 -4.65 19.68 -5.5 19 C-9.45881475 16.37014906 -12.31446777 16.47938531 -17 17 C-20.76762999 18.50705199 -21.78965539 19.63008361 -23.8125 23.1875 C-24.4003125 24.5796875 -24.4003125 24.5796875 -25 26 C-25.99 26 -26.98 26 -28 26 C-28.33 26.66 -28.66 27.32 -29 28 C-30.52299523 25.06279492 -31.80100302 22.0831351 -33 19 C-33.66 19 -34.32 19 -35 19 C-35.33 20.65 -35.66 22.3 -36 24 C-36.66 23.67 -37.32 23.34 -38 23 C-37.96840168 15.29000958 -36.46469076 10.5120041 -31 5 C-21.91453079 -3.27623714 -11.25462944 -5.50183429 0 0 Z " fill="#CFCBC7" transform="translate(672,100)"/>
<path d="M0 0 C0.99 0.33 1.98 0.66 3 1 C3 1.66 3 2.32 3 3 C4.65 3 6.3 3 8 3 C11.44948671 12.15965397 11.77365135 20.07962679 7.9296875 29.1953125 C4.09034607 36.64815175 -2.68146119 41.17292589 -10.25 44.375 C-15.77319668 45.29553278 -21.43062421 45.72440832 -27 45 C-29 42 -29 42 -29 40 C-29.33 39.34 -29.66 38.68 -30 38 C-29.1028125 37.8453125 -29.1028125 37.8453125 -28.1875 37.6875 C-25.68741714 36.90175967 -24.62464918 36.03081147 -23 34 C-23 33.34 -23 32.68 -23 32 C-22.34 32 -21.68 32 -21 32 C-20.67 32.33 -20.34 32.66 -20 33 C-19.34 33 -18.68 33 -18 33 C-17.67 32.01 -17.34 31.02 -17 30 C-15.01276732 29.29618843 -13.01222047 28.6288189 -11 28 C-10.67 27.34 -10.34 26.68 -10 26 C-9.34 26 -8.68 26 -8 26 C-7.06059097 22.8060093 -6.83555643 19.88723695 -6.8125 16.5625 C-6.79832031 15.63566406 -6.78414063 14.70882812 -6.76953125 13.75390625 C-7.01492438 10.82166627 -7.77798423 8.66138611 -9 6 C-8.01 5.34 -7.02 4.68 -6 4 C-6 4.66 -6 5.32 -6 6 C-5.34 6 -4.68 6 -4 6 C-3.67 6.99 -3.34 7.98 -3 9 C-3.33 9.66 -3.66 10.32 -4 11 C-1.27892548 8.6499811 -0.03297508 6.44325025 1 3 C0.67 2.01 0.34 1.02 0 0 Z " fill="#CFCFCF" transform="translate(504,116)"/>
<path d="M0 0 C3.93977589 3.71442382 7.6221262 7.64160188 9 13 C9 13.99 9 14.98 9 16 C7.42466914 16.86883706 5.83935491 17.71959068 4.25 18.5625 C3.36828125 19.03816406 2.4865625 19.51382813 1.578125 20.00390625 C-1.23496785 21.09078303 -2.26255675 21.14912453 -5 20 C-5.556875 19.505 -6.11375 19.01 -6.6875 18.5 C-9.72079735 16.53245577 -12.32252237 16.46282304 -15.87890625 16.2109375 C-18 16 -18 16 -21 15 C-20.67 14.67 -20.34 14.34 -20 14 C-20.495 13.608125 -20.99 13.21625 -21.5 12.8125 C-23.45593143 10.44908285 -23.24207973 8.98564997 -23 6 C-23.495 6.309375 -23.99 6.61875 -24.5 6.9375 C-27.9754402 8.41456209 -31.24319468 8.58257719 -35 9 C-38.11332248 9.66868314 -38.11332248 9.66868314 -39.1875 12.0625 C-39.455625 12.701875 -39.72375 13.34125 -40 14 C-40.90609278 11.54918279 -41.20886325 10.45677485 -40.1015625 8.03515625 C-34.9764467 1.18811001 -28.53794643 -3.0361403 -20.09765625 -4.78125 C-12.85508241 -5.53652772 -5.94778144 -4.30998655 0 0 Z " fill="#CFCECA" transform="translate(566,102)"/>
<path d="M0 0 C3.98959215 3.76139062 7.48670738 7.61940401 9 13 C8.01 13 7.02 13 6 13 C4.76341868 11.50308577 3.53012864 10.00273418 2.33984375 8.46875 C0.51005703 6.46291966 -1.4224164 5.73645246 -4 5 C-3.16666667 7.16666667 -3.16666667 7.16666667 -1 8 C-1 10.31 -1 12.62 -1 15 C-1.99 15 -2.98 15 -4 15 C-4.33 15.66 -4.66 16.32 -5 17 C-5.99 15.02 -6.98 13.04 -8 11 C-8.28875 11.639375 -8.5775 12.27875 -8.875 12.9375 C-10 15 -10 15 -12 16 C-13.83333925 16.02030597 -15.6673531 15.99181814 -17.5 15.9375 C-23.24032909 15.87510512 -28.44124692 16.62260986 -34 18 C-34.86846831 16.25705322 -35.71930627 14.50531337 -36.5625 12.75 C-37.03816406 11.77546875 -37.51382813 10.8009375 -38.00390625 9.796875 C-39 7 -39 7 -38.88671875 4.8046875 C-36.83141222 0.62164073 -31.46266193 -1.28650638 -27.4375 -3.25 C-18.22791097 -6.0837197 -7.98674358 -5.78749535 0 0 Z " fill="#CBCCCA" transform="translate(777,102)"/>
<path d="M0 0 C6.043125 -0.103125 12.08625 -0.20625 18.3125 -0.3125 C20.21684814 -0.35802002 22.12119629 -0.40354004 24.08325195 -0.45043945 C25.59324379 -0.46504286 27.10325529 -0.47778388 28.61328125 -0.48828125 C29.39682983 -0.51386108 30.18037842 -0.53944092 30.9876709 -0.5657959 C33.26293945 -0.56762695 33.26293945 -0.56762695 37 0 C39.64205468 3.03139656 39.97107995 4.6587434 40.3125 8.6875 C40 12 40 12 38 14 C31.32221592 15.05996573 24.7495936 15.11354457 18 15 C21.75 12 21.75 12 24 12 C24.144375 10.72125 24.28875 9.4425 24.4375 8.125 C24.70642746 5.74307106 24.92226346 4.15547309 26 2 C17.75 1.67 9.5 1.34 1 1 C1 24.43 1 47.86 1 72 C7.27 71.67 13.54 71.34 20 71 C24.2236068 64.04349839 24.2236068 64.04349839 24 60 C25.9375 60.3125 25.9375 60.3125 28 61 C29.1966746 64.59002381 29.05505768 66.38265938 28 70 C23 73 23 73 0 73 C0 48.91 0 24.82 0 0 Z " fill="#D59C5A" transform="translate(377,87)"/>
<path d="M0 0 C2.68125 -0.0825 5.3625 -0.165 8.125 -0.25 C8.95789551 -0.28641602 9.79079102 -0.32283203 10.64892578 -0.36035156 C15.91383403 -0.43823854 18.81904194 0.53286405 23 4 C25.88516342 7.4621961 26.53917865 10.48796884 26.3515625 15.0078125 C25.59882355 19.27333322 23.2188737 22.03581632 19.90625 24.65625 C15.91842089 26.50008497 12.5142721 26.32784788 8.1875 26.1875 C4.1346875 26.0946875 4.1346875 26.0946875 0 26 C0 17.42 0 8.84 0 0 Z M5 4 C5 9.94 5 15.88 5 22 C13.06598276 22.57764397 13.06598276 22.57764397 20 19 C21.6194825 15.76103501 21.5556086 12.50100356 21 9 C19.35801159 5.77367957 19.35801159 5.77367957 16 4 C12.22853008 3.59213036 8.81436992 3.77021868 5 4 Z " fill="#DADADB" transform="translate(377,208)"/>
<path d="M0 0 C1.65 0 3.3 0 5 0 C5 9.24 5 18.48 5 28 C2 29 2 29 -1 28 C-2.093125 28.20625 -3.18625 28.4125 -4.3125 28.625 C-8.70521352 29.07171663 -10.41327932 28.52700776 -14 26 C-16.40415469 22.58765141 -17 20.61810309 -17 16.4375 C-15.75864984 12.17035883 -14.67080764 10.52368025 -11 8 C-7.19640071 7.42847472 -3.48609888 7.25695056 0 9 C0 6.03 0 3.06 0 0 Z M-10.9375 13.625 C-12.36489363 16.81564458 -11.93843266 18.67939213 -11 22 C-9.12061828 24.29827312 -9.12061828 24.29827312 -6.0625 24.3125 C-3.07739953 24.22697575 -3.07739953 24.22697575 -1.125 22.875 C0.52854531 20.11909116 0.39365568 18.14924548 0 15 C-1 13 -1 13 -3 12 C-6.48176581 11.49224249 -8.19391764 11.32393092 -10.9375 13.625 Z " fill="#DDDDDE" transform="translate(570,206)"/>
<path d="M0 0 C2.39706123 -0.10854617 4.78915838 -0.18753157 7.1875 -0.25 C7.86103516 -0.28351563 8.53457031 -0.31703125 9.22851562 -0.3515625 C12.89041975 -0.42301429 14.82150622 -0.11534178 17.92578125 1.890625 C20.72049384 4.7327056 21.20495115 6.42099737 21.375 10.3125 C21.32240402 13.9416224 21.08637678 14.87436105 18.9375 18 C15.45488384 20.37114292 13.19641311 20.92370158 9 21 C6.5625 20.0625 6.5625 20.0625 5 19 C5 21.64 5 24.28 5 27 C3.0625 27.5625 3.0625 27.5625 1 28 C0 27 0 27 -0.11352539 24.40795898 C-0.10828857 23.28204346 -0.10305176 22.15612793 -0.09765625 20.99609375 C-0.09443359 19.78115234 -0.09121094 18.56621094 -0.08789062 17.31445312 C-0.07951172 16.03505859 -0.07113281 14.75566406 -0.0625 13.4375 C-0.05798828 12.15423828 -0.05347656 10.87097656 -0.04882812 9.54882812 C-0.03699545 6.36583978 -0.02051068 3.18294238 0 0 Z M6.1875 5.125 C4.44801218 7.87155972 4.60230872 9.81846974 5 13 C5.91666667 15.08333333 5.91666667 15.08333333 8 16 C12.34509216 15.9493338 12.34509216 15.9493338 16 14 C16.4384576 9.31877614 16.4384576 9.31877614 14.8125 5.0625 C11.7400853 3.26142932 9.21967671 3.24295928 6.1875 5.125 Z " fill="#E1E2E2" transform="translate(591,214)"/>
<path d="M0 0 C4.75290303 3.12183299 8.3714045 6.96185863 11 12 C10.75 14.375 10.75 14.375 10 16 C8.5 14.625 8.5 14.625 7 13 C7 12.34 7 11.68 7 11 C6.4225 10.731875 5.845 10.46375 5.25 10.1875 C3 9 3 9 1.25 7.5 C-5.67772231 2.88151846 -15.01789788 3.22548096 -23 4 C-26.23819914 4.99950001 -29.04119997 6.37363972 -32 8 C-32.99 8.33 -33.98 8.66 -35 9 C-35.68486725 10.32407669 -36.34870203 11.65909241 -37 13 C-38.29470975 14.37086915 -39.62150897 15.71340837 -41 17 C-40.44560113 11.17881187 -38.58342847 7.40223779 -34.2734375 3.39453125 C-23.49054825 -5.30481167 -12.32050736 -5.95797669 0 0 Z " fill="#EC9F3C" transform="translate(499,101)"/>
<path d="M0 0 C1.32 0 2.64 0 4 0 C4.33 2.97 4.66 5.94 5 9 C5.845625 8.608125 6.69125 8.21625 7.5625 7.8125 C12.10389483 6.7390794 14.01957828 7.67182881 18 10 C20.50037398 12.90366011 20.96108222 14.68865773 21.4375 18.5 C20.92017827 22.63857387 20.00806518 24.15453294 17 27 C13.02661095 29.30038314 10.40193314 28.97820736 6 28 C5.34 28 4.68 28 4 28 C2.35 27.67 0.7 27.34 -1 27 C-0.67 18.09 -0.34 9.18 0 0 Z M5.0625 13.625 C3.63510637 16.81564458 4.06156734 18.67939213 5 22 C6.87938172 24.29827312 6.87938172 24.29827312 9.9375 24.3125 C12.91651868 24.20931345 12.91651868 24.20931345 14.9375 22.9375 C16.6490104 19.81651045 15.79291991 17.35466116 15 14 C13.11861241 11.71069764 13.11861241 11.71069764 10.0625 11.625 C6.97566556 11.72077453 6.97566556 11.72077453 5.0625 13.625 Z " fill="#DBDCDD" transform="translate(472,206)"/>
<path d="M0 0 C2.63522446 2.44769912 5.13029179 4.91339695 7 8 C6.67 8.99 6.34 9.98 6 11 C5.60425781 10.55011719 5.20851563 10.10023437 4.80078125 9.63671875 C-1.55241685 3.86233696 -10.61798311 3.48001533 -18.7578125 3.73828125 C-24.94769701 4.23794663 -29.74654681 5.54773076 -35 9 C-35.99 9.33 -36.98 9.66 -38 10 C-39.20882096 12.00016466 -39.20882096 12.00016466 -40 14 C-40.90609278 11.54918279 -41.20886325 10.45677485 -40.1015625 8.03515625 C-34.9764467 1.18811001 -28.53794643 -3.0361403 -20.09765625 -4.78125 C-12.85382457 -5.53665889 -5.94915781 -4.30885504 0 0 Z " fill="#E1933A" transform="translate(566,102)"/>
<path d="M0 0 C3.98959215 3.76139062 7.48670738 7.61940401 9 13 C8.01 13 7.02 13 6 13 C5.360625 12.0925 4.72125 11.185 4.0625 10.25 C-0.19180021 4.8586646 -7.26136101 3.46342461 -13.8046875 2.65234375 C-19.90303402 2.44906553 -25.41767041 3.61247678 -31.2734375 5.24609375 C-33.83669856 5.95484645 -36.38706722 6.51066895 -39 7 C-38.62899407 4.43569434 -38.33994311 3.28752197 -36.328125 1.5859375 C-24.98658035 -5.02285731 -11.51816417 -8.34649578 0 0 Z " fill="#EB9A2F" transform="translate(777,102)"/>
<path d="M0 0 C4.4780021 3.15407105 8.90195658 6.82482623 11 12 C10.6875 14.3125 10.6875 14.3125 10 16 C9.4225 15.236875 8.845 14.47375 8.25 13.6875 C6.16642802 10.99108421 6.16642802 10.99108421 3.75 9.3125 C3.1725 8.879375 2.595 8.44625 2 8 C2 7.34 2 6.68 2 6 C-8.37954594 3.99834573 -19.1963274 3.79842603 -29 8 C-29 8.66 -29 9.32 -29 10 C-30.65002828 11.35386936 -32.3174387 12.68678142 -34 14 C-34.33 14.66 -34.66 15.32 -35 16 C-35.66 16 -36.32 16 -37 16 C-36.21464764 9.72824243 -32.51161188 6.16876054 -28 2 C-19.20948905 -3.81282436 -9.55860979 -4.67273377 0 0 Z " fill="#DEA152" transform="translate(672,100)"/>
<path d="M0 0 C3.19495801 2.2297365 4.72258057 5.10829468 5.875 8.8125 C5.91625 9.534375 5.9575 10.25625 6 11 C5 12 5 12 1.62109375 12.09765625 C0.22652923 12.09098369 -1.16801743 12.07902532 -2.5625 12.0625 C-3.27341797 12.05798828 -3.98433594 12.05347656 -4.71679688 12.04882812 C-6.47790013 12.03700864 -8.23896036 12.01907263 -10 12 C-7.62224638 14.70292795 -7.62224638 14.70292795 -4 15.25 C-0.95076009 15.11489313 -0.95076009 15.11489313 2 14 C2.66 15.32 3.32 16.64 4 18 C0.28247442 20.47835039 -2.2754656 21.30299925 -6.625 20.5625 C-10.05495643 19.61391171 -11.00032119 18.99966314 -13.5625 16.3125 C-15.23425131 12.46020351 -15.60444388 10.15555169 -15 6 C-11.08327331 -0.0056476 -6.96134909 -1.27444388 0 0 Z M-10 6 C-10 6.66 -10 7.32 -10 8 C-6.37 8 -2.74 8 1 8 C-1.42868323 3.78655457 -1.42868323 3.78655457 -4.5 3.625 C-7.24371063 3.85543074 -7.24371063 3.85543074 -10 6 Z " fill="#DEDFDF" transform="translate(675,214)"/>
<path d="M0 0 C2.475 0.495 2.475 0.495 5 1 C5.33 3.31 5.66 5.62 6 8 C6.60328125 7.95359375 7.2065625 7.9071875 7.828125 7.859375 C8.62734375 7.82328125 9.4265625 7.7871875 10.25 7.75 C11.03890625 7.70359375 11.8278125 7.6571875 12.640625 7.609375 C15 8 15 8 17.28125 9.5 C19.68541044 12.99696063 19.43730375 16.17254154 19.25 20.25 C19.23195313 20.99507812 19.21390625 21.74015625 19.1953125 22.5078125 C19.14835649 24.33909701 19.07661652 26.16971649 19 28 C17.68 28 16.36 28 15 28 C14.67 23.05 14.34 18.1 14 13 C8.52174919 12.5527864 8.52174919 12.5527864 6 14 C5.53045739 17.04581269 5.53045739 17.04581269 5.375 20.5625 C5.30023438 21.76003906 5.22546875 22.95757812 5.1484375 24.19140625 C5.09945313 25.11824219 5.05046875 26.04507813 5 27 C3.35 27.33 1.7 27.66 0 28 C0 18.76 0 9.52 0 0 Z " fill="#DADBDB" transform="translate(447,206)"/>
<path d="M0 0 C0.95648437 -0.03738281 1.91296875 -0.07476562 2.8984375 -0.11328125 C5.625 0.3125 5.625 0.3125 7.9609375 1.81640625 C10.29575433 5.31863149 10.06106428 8.51202369 9.875 12.5625 C9.85695313 13.30757812 9.83890625 14.05265625 9.8203125 14.8203125 C9.77335649 16.65159701 9.70161652 18.48221649 9.625 20.3125 C6.625 21.3125 6.625 21.3125 3.625 20.3125 C2.67625 20.51875 1.7275 20.725 0.75 20.9375 C-3.05907192 21.39458863 -4.35438282 20.55638704 -7.375 18.3125 C-7.705 17.9825 -8.035 17.6525 -8.375 17.3125 C-8.125 13.875 -8.125 13.875 -7.375 10.3125 C-4.17119983 8.17663322 -3.35560033 8.08117825 0.3125 8.1875 C1.52486328 8.21457031 1.52486328 8.21457031 2.76171875 8.2421875 C3.68404297 8.27699219 3.68404297 8.27699219 4.625 8.3125 C4.295 7.3225 3.965 6.3325 3.625 5.3125 C-0.005 5.3125 -3.635 5.3125 -7.375 5.3125 C-7.375 3.9925 -7.375 2.6725 -7.375 1.3125 C-4.81683084 0.03341542 -2.85652006 0.07275319 0 0 Z M-3.375 12.3125 C-3.375 13.6325 -3.375 14.9525 -3.375 16.3125 C0.76593698 16.52220559 0.76593698 16.52220559 4.625 15.3125 C4.625 14.3225 4.625 13.3325 4.625 12.3125 C1.985 12.3125 -0.655 12.3125 -3.375 12.3125 Z " fill="#DEDEE0" transform="translate(622.375,213.6875)"/>
<path d="M0 0 C0.99 0 1.98 0 3 0 C4.98854462 4.72279346 5.12523079 8.61255725 4.875 13.6328125 C5.01270977 16.24069124 5.68455926 17.76991687 7 20 C4.3333581 21.33332095 2.83319697 20.67102033 0 20 C0 19.01 0 18.02 0 17 C0.66 17 1.32 17 2 17 C2.042721 15.33388095 2.04063832 13.66617115 2 12 C1.67 11.67 1.34 11.34 1 11 C-0.70084819 16.32932432 -1.52013969 21.43109483 -2 27 C-2.66 27 -3.32 27 -4 27 C-4 28.32 -4 29.64 -4 31 C-9.61 31 -15.22 31 -21 31 C-20.67 29.68 -20.34 28.36 -20 27 C-16.04 27 -12.08 27 -8 27 C-7.87625 25.865625 -7.7525 24.73125 -7.625 23.5625 C-7.05770917 18.96662215 -6.07315212 14.50098751 -5 10 C-4.34 10 -3.68 10 -3 10 C-3 8.68 -3 7.36 -3 6 C-2.34 6 -1.68 6 -1 6 C-1.020625 5.195625 -1.04125 4.39125 -1.0625 3.5625 C-1 1 -1 1 0 0 Z " fill="#F79F2F" transform="translate(266,116)"/>
<path d="M0 0 C1.28197266 -0.05607422 1.28197266 -0.05607422 2.58984375 -0.11328125 C5.0625 0.3125 5.0625 0.3125 7.36328125 1.81640625 C9.74389545 5.31344642 9.49931134 8.49576079 9.3125 12.5625 C9.29445313 13.30757812 9.27640625 14.05265625 9.2578125 14.8203125 C9.21085649 16.65159701 9.13911652 18.48221649 9.0625 20.3125 C7.7425 20.3125 6.4225 20.3125 5.0625 20.3125 C3.928125 20.51875 2.79375 20.725 1.625 20.9375 C-2.07965555 21.32746374 -3.71291879 21.06298694 -6.9375 19.3125 C-7.5975 18.6525 -8.2575 17.9925 -8.9375 17.3125 C-8.8125 13.8125 -8.8125 13.8125 -7.9375 10.3125 C-5.03021097 8.30970089 -2.66005833 8.08536593 0.8125 8.1875 C1.61171875 8.20554688 2.4109375 8.22359375 3.234375 8.2421875 C3.83765625 8.26539063 4.4409375 8.28859375 5.0625 8.3125 C4.4025 7.3225 3.7425 6.3325 3.0625 5.3125 C0.62556689 4.94833953 0.62556689 4.94833953 -2.0625 5.125 C-2.97257812 5.15207031 -3.88265625 5.17914063 -4.8203125 5.20703125 C-5.51898438 5.24183594 -6.21765625 5.27664062 -6.9375 5.3125 C-7.2675 3.9925 -7.5975 2.6725 -7.9375 1.3125 C-5.06927682 0.35642561 -2.99505254 0.08557293 0 0 Z M-3.9375 12.3125 C-3.9375 13.6325 -3.9375 14.9525 -3.9375 16.3125 C-1.6275 16.3125 0.6825 16.3125 3.0625 16.3125 C3.7225 14.9925 4.3825 13.6725 5.0625 12.3125 C2.0925 12.3125 -0.8775 12.3125 -3.9375 12.3125 Z " fill="#DCDCDD" transform="translate(413.9375,213.6875)"/>
<path d="M0 0 C1.28197266 -0.05607422 1.28197266 -0.05607422 2.58984375 -0.11328125 C5.0625 0.3125 5.0625 0.3125 7.36328125 1.81640625 C9.74389545 5.31344642 9.49931134 8.49576079 9.3125 12.5625 C9.29445313 13.30757812 9.27640625 14.05265625 9.2578125 14.8203125 C9.21085649 16.65159701 9.13911652 18.48221649 9.0625 20.3125 C6.79192623 20.36648987 4.52098712 20.40528742 2.25 20.4375 C0.35314453 20.47230469 0.35314453 20.47230469 -1.58203125 20.5078125 C-4.9375 20.3125 -4.9375 20.3125 -7.9375 18.3125 C-8.9375 16 -8.9375 16 -8.9375 13.3125 C-7.0625 10.5 -7.0625 10.5 -3.9375 8.3125 C-0.88884568 7.90533415 2.00735067 8.01297556 5.0625 8.3125 C4.4025 7.3225 3.7425 6.3325 3.0625 5.3125 C0.62556689 4.94833953 0.62556689 4.94833953 -2.0625 5.125 C-2.97257813 5.15207031 -3.88265625 5.17914063 -4.8203125 5.20703125 C-5.51898437 5.24183594 -6.21765625 5.27664062 -6.9375 5.3125 C-7.2675 3.9925 -7.5975 2.6725 -7.9375 1.3125 C-5.06927682 0.35642561 -2.99505254 0.08557293 0 0 Z M-2.9375 12.3125 C-2.9375 13.6325 -2.9375 14.9525 -2.9375 16.3125 C-0.9575 16.3125 1.0225 16.3125 3.0625 16.3125 C3.7225 14.9925 4.3825 13.6725 5.0625 12.3125 C2.4225 12.3125 -0.2175 12.3125 -2.9375 12.3125 Z " fill="#D6D6D7" transform="translate(525.9375,213.6875)"/>
<path d="M0 0 C2.44921875 0.41015625 2.44921875 0.41015625 5.51171875 2.47265625 C7.84517019 6.01046973 8.44921875 8.17389085 8.44921875 12.41015625 C7.13427006 16.6837395 6.0250718 18.05578514 2.19921875 20.41015625 C-2.27933791 21.60443803 -4.328157 21.24261583 -8.55078125 19.41015625 C-11.76316166 17.12767543 -12.44336371 15.80402055 -13.48828125 11.97265625 C-13.57072994 7.27308072 -12.10893 5.33218405 -9.24609375 1.80078125 C-6.39540695 -0.53757014 -3.55184972 -0.11925919 0 0 Z M-7.42578125 5.53515625 C-9.07932656 8.29106509 -8.94443693 10.26091077 -8.55078125 13.41015625 C-7.55078125 15.41015625 -7.55078125 15.41015625 -5.55078125 16.41015625 C-2.40153577 16.80381193 -0.43169009 16.93870156 2.32421875 15.28515625 C3.97776406 12.52924741 3.84287443 10.55940173 3.44921875 7.41015625 C2.44921875 5.41015625 2.44921875 5.41015625 0.44921875 4.41015625 C-2.70002673 4.01650057 -4.66987241 3.88161094 -7.42578125 5.53515625 Z " fill="#DADBDB" transform="translate(507.55078125,213.58984375)"/>
<path d="M0 0 C2.3925 -0.0825 4.785 -0.165 7.25 -0.25 C7.99668945 -0.28641602 8.74337891 -0.32283203 9.51269531 -0.36035156 C12.95448456 -0.41774557 14.68035948 -0.24952582 17.421875 1.890625 C20.31219652 5.75392605 20.10620469 8.3174843 20.0625 13.125 C20.05347656 14.40632812 20.04445313 15.68765625 20.03515625 17.0078125 C20.02355469 17.99523437 20.01195312 18.98265625 20 20 C18.0625 20.5625 18.0625 20.5625 16 21 C13.57616482 18.57616482 14.46645135 12.40570963 14.28125 9.125 C14.34864552 6.1350199 14.34864552 6.1350199 13 5 C10.66055264 5.28730055 8.3260857 5.61936779 6 6 C5.67 10.62 5.34 15.24 5 20 C4.01 20.33 3.02 20.66 2 21 C1.34 20.67 0.68 20.34 0 20 C0 13.4 0 6.8 0 0 Z " fill="#E0E1E2" transform="translate(637,214)"/>
<path d="M0 0 C0.87785156 -0.01675781 1.75570313 -0.03351563 2.66015625 -0.05078125 C3.41167969 0.06910156 4.16320312 0.18898437 4.9375 0.3125 C5.5975 1.3025 6.2575 2.2925 6.9375 3.3125 C6.6075 3.9725 6.2775 4.6325 5.9375 5.3125 C2.6375 5.3125 -0.6625 5.3125 -4.0625 5.3125 C-4.0625 5.9725 -4.0625 6.6325 -4.0625 7.3125 C-3.36382812 7.49425781 -2.66515625 7.67601562 -1.9453125 7.86328125 C-1.03523438 8.11464844 -0.12515625 8.36601562 0.8125 8.625 C2.16988281 8.99044922 2.16988281 8.99044922 3.5546875 9.36328125 C5.9375 10.3125 5.9375 10.3125 7.9375 13.3125 C7.9375 15.8125 7.9375 15.8125 6.9375 18.3125 C3.50040675 20.82744628 0.90644733 21.54677971 -3.25 21.125 C-7.0625 20.3125 -7.0625 20.3125 -10.0625 18.3125 C-9.5675 16.8275 -9.5675 16.8275 -9.0625 15.3125 C-5.1025 15.6425 -1.1425 15.9725 2.9375 16.3125 C2.9375 15.3225 2.9375 14.3325 2.9375 13.3125 C1.7 13.209375 0.4625 13.10625 -0.8125 13 C-4.3417866 12.57448318 -6.43410966 11.83137408 -9.0625 9.3125 C-8.75 5.9375 -8.75 5.9375 -8.0625 2.3125 C-4.83214467 0.15892978 -3.75116542 0.01657363 0 0 Z " fill="#DCDCDC" transform="translate(436.0625,213.6875)"/>
<path d="M0 0 C1.11916809 -0.00960754 2.23833618 -0.01921509 3.39141846 -0.02911377 C4.61415466 -0.03336365 5.83689087 -0.03761353 7.09667969 -0.04199219 C8.35180359 -0.04769226 9.60692749 -0.05339233 10.90008545 -0.05926514 C13.57014589 -0.06874004 16.24009334 -0.07562219 18.91015625 -0.07910156 C21.6277429 -0.08345822 24.34500704 -0.09723269 27.0625 -0.12011719 C30.99065695 -0.15084342 34.91841534 -0.16118272 38.84667969 -0.16699219 C40.04512512 -0.17933899 41.24357056 -0.19168579 42.47833252 -0.20440674 C50.60520937 -0.18332663 57.93384282 1.01564085 65.76855469 3.16113281 C64.77855469 3.49113281 63.78855469 3.82113281 62.76855469 4.16113281 C62.76855469 4.82113281 62.76855469 5.48113281 62.76855469 6.16113281 C58.91210348 6.38150145 56.27632253 5.76468383 52.76855469 4.16113281 C52.76855469 3.50113281 52.76855469 2.84113281 52.76855469 2.16113281 C51.68477539 2.20657227 51.68477539 2.20657227 50.57910156 2.25292969 C33.96636676 2.93506978 17.39515125 3.31115069 0.76855469 3.16113281 C0.43855469 4.15113281 0.10855469 5.14113281 -0.23144531 6.16113281 C-0.89144531 5.50113281 -1.55144531 4.84113281 -2.23144531 4.16113281 C-3.22144531 4.65613281 -3.22144531 4.65613281 -4.23144531 5.16113281 C-4.8869965 7.68846516 -4.8869965 7.68846516 -5.23144531 10.16113281 C-5.56144531 10.16113281 -5.89144531 10.16113281 -6.23144531 10.16113281 C-6.25833747 8.68206389 -6.27779153 7.20285798 -6.29394531 5.72363281 C-6.30554688 4.89992188 -6.31714844 4.07621094 -6.32910156 3.22753906 C-6.13444961 -0.89129622 -3.52299188 0.02432421 0 0 Z " fill="#EEAC4C" transform="translate(215.2314453125,56.8388671875)"/>
<path d="M0 0 C0.33 0 0.66 0 1 0 C1.33 10.89 1.66 21.78 2 33 C3.65 33 5.3 33 7 33 C7 33.66 7 34.32 7 35 C8.32 35.66 9.64 36.32 11 37 C10.34 37.66 9.68 38.32 9 39 C8.566875 40.175625 8.13375 41.35125 7.6875 42.5625 C6 46 6 46 3.3125 46.9375 C2.549375 46.958125 1.78625 46.97875 1 47 C1.99 44.69 2.98 42.38 4 40 C3.34 40 2.68 40 2 40 C1.34 38.02 0.68 36.04 0 34 C-0.66 34 -1.32 34 -2 34 C-2.33317337 7.90141907 -2.33317337 7.90141907 0 0 Z " fill="#E4A043" transform="translate(392,112)"/>
<path d="M0 0 C1.32 0 2.64 0 4 0 C4 9.24 4 18.48 4 28 C2.68 28.33 1.36 28.66 0 29 C-1.80279191 27.19720809 -1.13036605 24.45952299 -1.1328125 22.03125 C-1.13410156 20.82082031 -1.13539063 19.61039063 -1.13671875 18.36328125 C-1.13285156 17.08839844 -1.12898437 15.81351563 -1.125 14.5 C-1.12886719 13.22511719 -1.13273438 11.95023438 -1.13671875 10.63671875 C-1.13542969 9.42628906 -1.13414062 8.21585938 -1.1328125 6.96875 C-1.13168457 5.84919922 -1.13055664 4.72964844 -1.12939453 3.57617188 C-1 1 -1 1 0 0 Z " fill="#DDDDDF" transform="translate(685,206)"/>
<path d="M0 0 C4.75290303 3.12183299 8.3714045 6.96185863 11 12 C10.75 14.375 10.75 14.375 10 16 C8.5 14.625 8.5 14.625 7 13 C7 12.34 7 11.68 7 11 C6.4225 10.731875 5.845 10.46375 5.25 10.1875 C3 9 3 9 1.25 7.5 C-1.99545416 5.33636389 -5.19635404 4.82412329 -9 4 C-6.10765685 3.17361624 -4.11257569 3 -1 3 C-5.17598041 -1.17598041 -16.45345168 -0.81169126 -22 -1 C-25.4800332 -0.66204354 -25.4800332 -0.66204354 -28 0 C-20.48193262 -7.51806738 -8.33402443 -4.03018495 0 0 Z " fill="#DE9740" transform="translate(499,101)"/>
<path d="M0 0 C1.8125 0.5625 1.8125 0.5625 4 2 C5.19851312 4.34491697 6.09972795 6.53652831 7 9 C7.89494639 11.31284339 8.79083806 13.62532116 9.6875 15.9375 C10.45964511 17.95783248 11.23091787 19.97849955 12 22 C10.68 22 9.36 22 8 22 C8 21.34 8 20.68 8 20 C6.35 20.33 4.7 20.66 3 21 C1.75453595 18.50907189 2.2232422 17.58919267 3 15 C2.01 15 1.02 15 0 15 C0 14.01 0 13.02 0 12 C0.66 12 1.32 12 2 12 C2 10.35 2 8.7 2 7 C1.34 7 0.68 7 0 7 C0 7.66 0 8.32 0 9 C-0.66 9 -1.32 9 -2 9 C-2.25 3.375 -2.25 3.375 0 0 Z " fill="#F9A131" transform="translate(187,110)"/>
<path d="M0 0 C8.06558803 -0.67317118 13.61652926 -0.6578827 20.09765625 4.4921875 C21.94714486 6.06770181 21.94714486 6.06770181 24.1328125 7.046875 C26.88555993 8.45204314 27.74705588 10.23033406 29 13 C28.6875 15.3125 28.6875 15.3125 28 17 C27.4225 16.236875 26.845 15.47375 26.25 14.6875 C24.16642802 11.99108421 24.16642802 11.99108421 21.75 10.3125 C21.1725 9.879375 20.595 9.44625 20 9 C20 8.34 20 7.68 20 7 C13.44909577 5.50720545 7.08389585 4.68580361 0.37109375 4.34375 C-0.41136719 4.2303125 -1.19382812 4.116875 -2 4 C-2.33 3.34 -2.66 2.68 -3 2 C-2.01 2 -1.02 2 0 2 C0 1.34 0 0.68 0 0 Z " fill="#E6942E" transform="translate(654,99)"/>
<path d="M0 0 C0.95648437 -0.03738281 1.91296875 -0.07476562 2.8984375 -0.11328125 C5.625 0.3125 5.625 0.3125 7.9609375 1.81640625 C10.29575433 5.31863149 10.06106428 8.51202369 9.875 12.5625 C9.85695313 13.30757812 9.83890625 14.05265625 9.8203125 14.8203125 C9.77335649 16.65159701 9.70161652 18.48221649 9.625 20.3125 C8.635 20.6425 7.645 20.9725 6.625 21.3125 C6.625 20.6525 6.625 19.9925 6.625 19.3125 C7.285 19.3125 7.945 19.3125 8.625 19.3125 C8.27713292 17.33713255 8.27713292 17.33713255 7.625 15.3125 C6.965 14.9825 6.305 14.6525 5.625 14.3125 C5.955 13.9825 6.285 13.6525 6.625 13.3125 C6.295 12.3225 5.965 11.3325 5.625 10.3125 C4.635 9.9825 3.645 9.6525 2.625 9.3125 C3.285 9.3125 3.945 9.3125 4.625 9.3125 C4.295 7.9925 3.965 6.6725 3.625 5.3125 C-0.005 5.3125 -3.635 5.3125 -7.375 5.3125 C-7.375 3.9925 -7.375 2.6725 -7.375 1.3125 C-4.81683084 0.03341542 -2.85652006 0.07275319 0 0 Z " fill="#D4D4D5" transform="translate(622.375,213.6875)"/>
<path d="M0 0 C-0.1875 1.875 -0.1875 1.875 -1 4 C-2.65204456 4.70211894 -4.31923769 5.36971413 -6 6 C-7.00259507 9.00778521 -7.30314642 11.53820647 -7.5625 14.6875 C-7.64628906 15.68136719 -7.73007812 16.67523438 -7.81640625 17.69921875 C-7.87699219 18.45847656 -7.93757812 19.21773437 -8 20 C-9.32 20 -10.64 20 -12 20 C-12 13.4 -12 6.8 -12 0 C-3 -1 -3 -1 0 0 Z " fill="#DFE1E2" transform="translate(553,214)"/>
<path d="M0 0 C0 1.32 0 2.64 0 4 C0.66 4.33 1.32 4.66 2 5 C1.01 7.31 0.02 9.62 -1 12 C-2.4370809 12.05422947 -3.87475462 12.09289723 -5.3125 12.125 C-6.11300781 12.14820313 -6.91351562 12.17140625 -7.73828125 12.1953125 C-10 12 -10 12 -13 10 C-14 7.6875 -14 7.6875 -14 5 C-10.19170004 -0.71244994 -6.27983481 -0.61567008 0 0 Z M-8 4 C-8 5.32 -8 6.64 -8 8 C-6.02 8 -4.04 8 -2 8 C-1.34 6.68 -0.68 5.36 0 4 C-2.64 4 -5.28 4 -8 4 Z " fill="#DBDBDB" transform="translate(531,222)"/>
<path d="M0 0 C2.97 0.99 5.94 1.98 9 3 C9 3.99 9 4.98 9 6 C9.99 6.33 10.98 6.66 12 7 C11.01 7.495 11.01 7.495 10 8 C9.28752268 9.6476038 8.62599617 11.31763529 8 13 C7.34 14.32 6.68 15.64 6 17 C1.71 16.34 -2.58 15.68 -7 15 C-7 14.67 -7 14.34 -7 14 C-3.92382812 13.70703125 -3.92382812 13.70703125 -0.84765625 13.4140625 C-0.23792969 13.27742188 0.37179687 13.14078125 1 13 C2.5121867 9.97562661 2.17263369 7.33758466 2 4 C1.34 2.68 0.68 1.36 0 0 Z " fill="#D6CCBC" transform="translate(414,87)"/>
<path d="M0 0 C7.27272727 -0.48484848 7.27272727 -0.48484848 10.25 1.5 C12.69466761 4.99238229 12.43798423 8.15772797 12.25 12.25 C12.23195313 12.99507812 12.21390625 13.74015625 12.1953125 14.5078125 C12.14835649 16.33909701 12.07661652 18.16971649 12 20 C10.68 20 9.36 20 8 20 C7.67 15.05 7.34 10.1 7 5 C4.03 5 1.06 5 -2 5 C-1.34 4.67 -0.68 4.34 0 4 C0 2.68 0 1.36 0 0 Z " fill="#DFE0E0" transform="translate(454,214)"/>
<path d="M0 0 C4.95 0 9.9 0 15 0 C14.01 0.33 13.02 0.66 12 1 C12.33 1.99 12.66 2.98 13 4 C12.67 4.99 12.34 5.98 12 7 C12.33 7.99 12.66 8.98 13 10 C12.67 10.99 12.34 11.98 12 13 C12.99 13.66 13.98 14.32 15 15 C10.38 15 5.76 15 1 15 C1.99 14.01 2.98 13.02 4 12 C4.66 12 5.32 12 6 12 C6.26932521 7.34947128 6.26932521 7.34947128 5 3 C2.47266765 2.34444881 2.47266765 2.34444881 0 2 C0 1.34 0 0.68 0 0 Z " fill="#D4C3AC" transform="translate(399,145)"/>
<path d="M0 0 C3.70816052 -0.28330598 7.29932473 -0.4257414 11 0 C13.98568012 2.81506982 13.96827427 4.62563644 14.3125 8.6875 C14 12 14 12 12 14 C8.375 14.125 8.375 14.125 5 14 C5.01160156 13.30132812 5.02320313 12.60265625 5.03515625 11.8828125 C5.04417969 10.97273438 5.05320312 10.06265625 5.0625 9.125 C5.07410156 8.22007813 5.08570313 7.31515625 5.09765625 6.3828125 C5.16249257 3.9831415 5.16249257 3.9831415 4 2 C1.98330173 0.86649466 1.98330173 0.86649466 0 0 Z " fill="#D9B688" transform="translate(403,87)"/>
<path d="M0 0 C0.66 0.66 1.32 1.32 2 2 C1.67 2.99 1.34 3.98 1 5 C0.95571369 6.13578982 0.95571369 6.13578982 1.47265625 7.71484375 C3.07504681 13.75299097 2.94991699 18.85121301 2 25 C0.0625 25.5625 0.0625 25.5625 -2 26 C-4.42136374 23.57863626 -3.23368095 17.37657032 -3.25 14.125 C-3.270625 13.10535156 -3.29125 12.08570313 -3.3125 11.03515625 C-3.31765625 10.05675781 -3.3228125 9.07835937 -3.328125 8.0703125 C-3.3374707 7.17070801 -3.34681641 6.27110352 -3.35644531 5.34423828 C-2.93599297 2.57904418 -2.14834809 1.71796945 0 0 Z " fill="#D8D9D9" transform="translate(594,216)"/>
<path d="M0 0 C2.875 -0.1875 2.875 -0.1875 6 0 C8.27005139 3.40507709 8.18320175 4.21478421 7.75 8.125 C7.61851562 9.45917969 7.61851562 9.45917969 7.484375 10.8203125 C7.32453125 11.53960937 7.1646875 12.25890625 7 13 C4.35541621 14.32229189 2.32238699 14.09677194 -0.625 14.0625 C-1.62789063 14.05347656 -2.63078125 14.04445313 -3.6640625 14.03515625 C-4.43492187 14.02355469 -5.20578125 14.01195313 -6 14 C-2.25 11 -2.25 11 0 11 C0.144375 9.72125 0.28875 8.4425 0.4375 7.125 C0.70642746 4.74307106 0.92226346 3.15547309 2 1 C1.34 0.67 0.68 0.34 0 0 Z " fill="#E4A44D" transform="translate(401,88)"/>
<path d="M0 0 C1.9765625 1.03515625 1.9765625 1.03515625 4 3 C4.35448568 5.6406179 4.47061601 7.81309219 4.375 10.4375 C4.36210937 11.75621094 4.34921875 13.07492188 4.3359375 14.43359375 C4.03780921 17.59860686 3.68336237 19.36722126 2 22 C1.34 22 0.68 22 0 22 C-2.20808081 16.80451575 -1.93402724 13.41735797 -1 8 C-0.34 8 0.32 8 1 8 C0.67 6.35 0.34 4.7 0 3 C-0.66 3 -1.32 3 -2 3 C-2 2.34 -2 1.68 -2 1 C-1.34 0.67 -0.68 0.34 0 0 Z " fill="#F4A135" transform="translate(247,83)"/>
<path d="M0 0 C0.66 0.66 1.32 1.32 2 2 C4.37786936 2.24491488 4.37786936 2.24491488 7.12109375 2.125 C8.13880859 2.10953125 9.15652344 2.0940625 10.20507812 2.078125 C12.35612207 2.02613602 14.50716375 1.97405303 16.65820312 1.921875 C18.18670898 1.89867188 18.18670898 1.89867188 19.74609375 1.875 C20.68122803 1.85179688 21.6163623 1.82859375 22.57983398 1.8046875 C25 2 25 2 28 4 C26.7934375 3.97679688 25.586875 3.95359375 24.34375 3.9296875 C22.72917291 3.91091335 21.11458906 3.89271493 19.5 3.875 C18.31277344 3.84986328 18.31277344 3.84986328 17.1015625 3.82421875 C9.61312093 3.76283808 3.38249702 4.80578767 -3 9 C-3.99 9.33 -4.98 9.66 -6 10 C-7.20882096 12.00016466 -7.20882096 12.00016466 -8 14 C-8.671875 12.2578125 -8.671875 12.2578125 -9 10 C-7.890625 7.9296875 -7.890625 7.9296875 -6.25 5.875 C-5.71890625 5.19179687 -5.1878125 4.50859375 -4.640625 3.8046875 C-3 2 -3 2 0 0 Z " fill="#DEA45B" transform="translate(534,102)"/>
<path d="M0 0 C1.32 0.33 2.64 0.66 4 1 C3.67 5.95 3.34 10.9 3 16 C2.34 16 1.68 16 1 16 C0.896875 16.598125 0.79375 17.19625 0.6875 17.8125 C-0.08876455 20.28243264 -1.07088921 21.32251235 -3 23 C-2.855625 22.443125 -2.71125 21.88625 -2.5625 21.3125 C-1.97230872 18.88615805 -1.476571 16.45093655 -1 14 C-1.66 14 -2.32 14 -3 14 C-3.33 14.66 -3.66 15.32 -4 16 C-4.1875 12.625 -4.1875 12.625 -4 9 C-3.01 8.34 -2.02 7.68 -1 7 C-0.26393501 3.43230448 -0.26393501 3.43230448 0 0 Z " fill="#F6A12E" transform="translate(245,105)"/>
<path d="M0 0 C5.072007 -0.04942365 10.14387394 -0.08573068 15.21606445 -0.10986328 C16.94167523 -0.11992326 18.66726895 -0.13357276 20.39282227 -0.15087891 C22.8726014 -0.17512754 25.35215523 -0.18648301 27.83203125 -0.1953125 C28.60400345 -0.20563507 29.37597565 -0.21595764 30.17134094 -0.22659302 C33.99281476 -0.22739422 35.74136107 -0.17242595 39 2 C29.43 2 19.86 2 10 2 C9.67 2.99 9.34 3.98 9 5 C6.69 5 4.38 5 2 5 C1.67 7.31 1.34 9.62 1 12 C0.34 11.34 -0.32 10.68 -1 10 C-0.63723355 7.17042171 0.09694764 4.70915709 1 2 C0.67 1.34 0.34 0.68 0 0 Z " fill="#EBA140" transform="translate(229,73)"/>
<path d="M0 0 C3.0625 0.1875 3.0625 0.1875 5.0625 2.1875 C4.4025 4.4975 3.7425 6.8075 3.0625 9.1875 C0.3125 9.9375 0.3125 9.9375 -2.9375 10.1875 C-5.3125 8.25 -5.3125 8.25 -6.9375 6.1875 C-6.2775 6.1875 -5.6175 6.1875 -4.9375 6.1875 C-4.793125 5.383125 -4.64875 4.57875 -4.5 3.75 C-3.72907895 0.23802632 -3.72907895 0.23802632 0 0 Z " fill="#F7A331" transform="translate(199.9375,76.8125)"/>
<path d="M0 0 C1.32 0.33 2.64 0.66 4 1 C-5.84466019 10 -5.84466019 10 -12 10 C-11.68926976 12.22941405 -11.37634375 14.45852212 -11.0625 16.6875 C-10.88847656 17.92886719 -10.71445313 19.17023438 -10.53515625 20.44921875 C-10.10177103 23.32474548 -9.60350718 26.15644813 -9 29 C-11 28 -11 28 -12.0625 24.875 C-13.40529505 19.03490724 -15.7269519 8.45390381 -13 3 C-11.02 3.495 -11.02 3.495 -9 4 C-9 4.99 -9 5.98 -9 7 C-8.34 7.33 -7.68 7.66 -7 8 C-7 7.01 -7 6.02 -7 5 C-5.824375 4.87625 -5.824375 4.87625 -4.625 4.75 C-1.85250896 4.27193661 -1.85250896 4.27193661 -0.6875 1.9375 C-0.460625 1.298125 -0.23375 0.65875 0 0 Z " fill="#F0A042" transform="translate(236,140)"/>
<path d="M0 0 C0.33 0 0.66 0 1 0 C1 1.65 1 3.3 1 5 C0.34 5 -0.32 5 -1 5 C-0.34 6.98 0.32 8.96 1 11 C-0.423125 11.4021875 -0.423125 11.4021875 -1.875 11.8125 C-5.25267273 12.74986588 -5.25267273 12.74986588 -7 16 C-7.66 15.67 -8.32 15.34 -9 15 C-9 16.32 -9 17.64 -9 19 C-9.721875 19.103125 -10.44375 19.20625 -11.1875 19.3125 C-14.09552566 19.87460886 -14.09552566 19.87460886 -16.6875 21.625 C-17.8321875 22.305625 -17.8321875 22.305625 -19 23 C-19.66 22.67 -20.32 22.34 -21 22 C-20.29875 21.53851563 -19.5975 21.07703125 -18.875 20.6015625 C-10.8818753 15.10628927 -4.12259539 8.94254523 0 0 Z " fill="#F0A647" transform="translate(308,155)"/>
<path d="M0 0 C2.63311989 9.26858203 3.97002525 18.45152821 5 28 C4.34 27.67 3.68 27.34 3 27 C2.64820803 24.6693782 2.31669821 22.33564933 2 20 C1.649375 19.360625 1.29875 18.72125 0.9375 18.0625 C-0.28555151 15.37178668 -0.08568257 12.95029962 -0.00390625 10.0390625 C0.00135854 7.29084093 -0.46228922 4.68855392 -1 2 C-1.99 2.33 -2.98 2.66 -4 3 C-4.33 4.65 -4.66 6.3 -5 8 C-5.66 8 -6.32 8 -7 8 C-7.33 9.32 -7.66 10.64 -8 12 C-7.85831863 10.56208484 -7.71148957 9.1246763 -7.5625 7.6875 C-7.48128906 6.88699219 -7.40007812 6.08648437 -7.31640625 5.26171875 C-7 3 -7 3 -6 0 C-3.50907189 -1.24546405 -2.58919267 -0.7767578 0 0 Z " fill="#E7A348" transform="translate(270,114)"/>
<path d="M0 0 C-0.33 0.99 -0.66 1.98 -1 3 C-0.34 3.33 0.32 3.66 1 4 C1 3.34 1 2.68 1 2 C7.93 2 14.86 2 22 2 C22.33 2.66 22.66 3.32 23 4 C21.58460938 3.94779297 21.58460938 3.94779297 20.140625 3.89453125 C11.54056219 3.71320462 4.31053498 4.57714011 -4 7 C-5.66314186 7.35049684 -7.3289624 7.68931972 -9 8 C-8.875 6.25 -8.875 6.25 -8 4 C-2.77777778 0 -2.77777778 0 0 0 Z " fill="#DA9A4D" transform="translate(747,101)"/>
<path d="M0 0 C4.29 0 8.58 0 13 0 C13 0.99 13 1.98 13 3 C15.48020497 2.88658509 17.95844969 2.75985314 20.4375 2.625 C21.14455078 2.5940625 21.85160156 2.563125 22.58007812 2.53125 C24.39239188 2.42719371 26.19817988 2.22080108 28 2 C28.33 1.34 28.66 0.68 29 0 C29.66 0 30.32 0 31 0 C31 0.66 31 1.32 31 2 C32.98 1.67 34.96 1.34 37 1 C37 1.66 37 2.32 37 3 C28.72049367 5.21772491 20.52080037 5.60271115 12 6 C11.67 4.35 11.34 2.7 11 1 C7.37 1 3.74 1 0 1 C0 0.67 0 0.34 0 0 Z " fill="#E9A34B" transform="translate(244,196)"/>
<path d="M0 0 C4.62432759 2.78662515 7.51559881 5.51529285 10.75 9.9375 C11.50796875 10.95714844 12.2659375 11.97679688 13.046875 13.02734375 C14.77759659 15.66150201 15.97327246 18.03450502 17 21 C16.01 20.67 15.02 20.34 14 20 C14 19.34 14 18.68 14 18 C12.35 18.66 10.7 19.32 9 20 C9 17 9 14 9 11 C6.50935112 10.31292445 4.62113708 10 2 10 C2 9.01 2 8.02 2 7 C2.66 7 3.32 7 4 7 C3.24849977 3.72226496 3.24849977 3.72226496 0 2 C0 1.34 0 0.68 0 0 Z " fill="#F2A744" transform="translate(306,75)"/>
<path d="M0 0 C0.66 0.33 1.32 0.66 2 1 C3.37342831 1.0689472 4.75002102 1.08467708 6.125 1.0625 C7.40375 1.041875 8.6825 1.02125 10 1 C10.33 1.99 10.66 2.98 11 4 C12.32 3.67 13.64 3.34 15 3 C15.33 3.99 15.66 4.98 16 6 C13 7 13 7 10 6 C8.906875 6.20625 7.81375 6.4125 6.6875 6.625 C2.42033778 7.0589487 0.60281974 6.19684131 -3 4 C-3 3.34 -3 2.68 -3 2 C-2.01 1.34 -1.02 0.68 0 0 Z " fill="#E3E4E5" transform="translate(559,228)"/>
<path d="M0 0 C0.66 0.33 1.32 0.66 2 1 C-0.875 7.875 -0.875 7.875 -2 9 C-3.41570123 9.08651611 -4.835595 9.10704904 -6.25390625 9.09765625 C-7.10791016 9.09443359 -7.96191406 9.09121094 -8.84179688 9.08789062 C-9.73962891 9.07951172 -10.63746094 9.07113281 -11.5625 9.0625 C-12.46419922 9.05798828 -13.36589844 9.05347656 -14.29492188 9.04882812 C-16.53001314 9.03700225 -18.76497437 9.0205222 -21 9 C-20.125 3.125 -20.125 3.125 -19 2 C-16.81360547 1.92741054 -14.62499611 1.91626217 -12.4375 1.9375 C-10.64119141 1.95103516 -10.64119141 1.95103516 -8.80859375 1.96484375 C-7.88175781 1.97644531 -6.95492188 1.98804688 -6 2 C-6 2.33 -6 2.66 -6 3 C-11.94 3.495 -11.94 3.495 -18 4 C-18.33 4.99 -18.66 5.98 -19 7 C-13.39 7 -7.78 7 -2 7 C-2 5.68 -2 4.36 -2 3 C-1.34 3 -0.68 3 0 3 C0 2.01 0 1.02 0 0 Z " fill="#E09D46" transform="translate(264,140)"/>
<path d="M0 0 C-2.49668289 1.24834144 -3.81329151 0.95155125 -6.5625 0.625 C-7.36816406 0.53476563 -8.17382812 0.44453125 -9.00390625 0.3515625 C-11 0 -11 0 -12 -1 C-13.68608966 -1.07205511 -15.37500659 -1.08386068 -17.0625 -1.0625 C-17.98160156 -1.05347656 -18.90070313 -1.04445313 -19.84765625 -1.03515625 C-20.55792969 -1.02355469 -21.26820313 -1.01195313 -22 -1 C-22 -0.34 -22 0.32 -22 1 C-23.43554025 1.50559908 -24.8735202 2.0042749 -26.3125 2.5 C-27.51326172 2.91765625 -27.51326172 2.91765625 -28.73828125 3.34375 C-31 4 -31 4 -34 4 C-34 4.66 -34 5.32 -34 6 C-34.66 5.67 -35.32 5.34 -36 5 C-26.76644793 -5.67629458 -12.28786446 -5.08463357 0 0 Z " fill="#D9C5AB" transform="translate(499,107)"/>
<path d="M0 0 C0.66 0.33 1.32 0.66 2 1 C1.67 1.66 1.34 2.32 1 3 C2.32 3.66 3.64 4.32 5 5 C-1.625 7.875 -1.625 7.875 -5 9 C-5.68486725 10.32407669 -6.34870203 11.65909241 -7 13 C-8.29470975 14.37086915 -9.62150897 15.71340837 -11 17 C-10.37746764 10.46341022 -7.71743626 6.29388859 -2.75 2.125 C-1.38875 1.073125 -1.38875 1.073125 0 0 Z " fill="#E19741" transform="translate(469,101)"/>
<path d="M0 0 C-0.99 0.66 -1.98 1.32 -3 2 C-3 1.34 -3 0.68 -3 0 C-5.97 -0.33 -8.94 -0.66 -12 -1 C-12 -0.34 -12 0.32 -12 1 C-12.97839844 0.87431641 -12.97839844 0.87431641 -13.9765625 0.74609375 C-18.88249144 0.17445896 -23.13127185 -0.15311982 -28 1 C-27 -1 -27 -1 -24.84765625 -1.88671875 C-15.85235567 -4.47302537 -8.26615955 -5.00320183 0 0 Z " fill="#E6A750" transform="translate(564,101)"/>
<path d="M0 0 C2 3 2 3 2.3125 6.0625 C2.539375 7.031875 2.76625 8.00125 3 9 C5.46255685 10.45291273 5.46255685 10.45291273 8 11 C8 9.35 8 7.7 8 6 C8.66 6.66 9.32 7.32 10 8 C10.66 7.34 11.32 6.68 12 6 C12.625 8.875 12.625 8.875 13 12 C12.34 12.66 11.68 13.32 11 14 C7.375 13.625 7.375 13.625 4 13 C4.165 13.680625 4.33 14.36125 4.5 15.0625 C5.07089059 18.4164822 5.06659023 21.60389805 5 25 C2.61885041 21.10733806 2.11140909 16.92596894 1.375 12.5 C1.2409375 11.74074219 1.106875 10.98148438 0.96875 10.19921875 C0.36679821 6.69192824 0 3.58741579 0 0 Z " fill="#E79E47" transform="translate(267,138)"/>
<path d="M0 0 C3.3 0 6.6 0 10 0 C11.32 3.3 12.64 6.6 14 10 C13.01 10 12.02 10 11 10 C10.566875 9.175 10.13375 8.35 9.6875 7.5 C9.130625 6.675 8.57375 5.85 8 5 C5 4.25 5 4.25 2 5 C0.08743288 6.88077873 0.08743288 6.88077873 -1 9 C-1.99 8.67 -2.98 8.34 -4 8 C-3 6 -3 6 -1.4375 4.5625 C0.33852827 2.98589466 0.33852827 2.98589466 0 0 Z " fill="#E0E1E2" transform="translate(500,214)"/>
<path d="M0 0 C-0.66 0.66 -1.32 1.32 -2 2 C-3.77734375 1.79296875 -3.77734375 1.79296875 -5.9375 1.1875 C-13.18455188 -0.61257418 -20.64653107 -1.78868163 -28 0 C-20.20359974 -7.79640026 -8.65532485 -3.56395729 0 0 Z " fill="#E4AC51" transform="translate(499,101)"/>
<path d="M0 0 C5.94 0 11.88 0 18 0 C18.33 1.65 18.66 3.3 19 5 C14.05 4.67 9.1 4.34 4 4 C4 3.34 4 2.68 4 2 C2.68 1.34 1.36 0.68 0 0 Z " fill="#F39D2E" transform="translate(280,143)"/>
<path d="M0 0 C0 -0.66 0 -1.32 0 -2 C2.97 -1.67 5.94 -1.34 9 -1 C9 -0.34 9 0.32 9 1 C8.14450562 1.03758423 8.14450562 1.03758423 7.27172852 1.07592773 C4.70173843 1.19156549 2.13214473 1.31443624 -0.4375 1.4375 C-1.33533203 1.47681641 -2.23316406 1.51613281 -3.15820312 1.55664062 C-4.01220703 1.59853516 -4.86621094 1.64042969 -5.74609375 1.68359375 C-6.53685303 1.72025146 -7.3276123 1.75690918 -8.14233398 1.79467773 C-10.01401441 1.80563257 -10.01401441 1.80563257 -11 3 C-12.66617115 3.04063832 -14.33388095 3.042721 -16 3 C-16.33 2.01 -16.66 1.02 -17 0 C-10.43158202 -2.06068015 -6.33816037 -2.89744474 0 0 Z " fill="#EF9A2B" transform="translate(552,102)"/>
<path d="M0 0 C1.4540625 0.0309375 1.4540625 0.0309375 2.9375 0.0625 C2.9375 0.3925 2.9375 0.7225 2.9375 1.0625 C1.7928125 1.2171875 1.7928125 1.2171875 0.625 1.375 C-2.07809942 1.82319823 -2.07809942 1.82319823 -3.5625 3.5625 C-5.55567162 5.55567162 -7.34498089 5.56190438 -10.0625 6.0625 C-10.3925 6.7225 -10.7225 7.3825 -11.0625 8.0625 C-11.72765625 8.35125 -12.3928125 8.64 -13.078125 8.9375 C-15.21858876 9.85931782 -15.21858876 9.85931782 -15.671875 11.875 C-15.71828125 12.596875 -15.7646875 13.31875 -15.8125 14.0625 C-15.89564453 15.25166016 -15.89564453 15.25166016 -15.98046875 16.46484375 C-16.11315586 20.66660239 -16.14147155 24.85945847 -16.0625 29.0625 C-16.3925 29.0625 -16.7225 29.0625 -17.0625 29.0625 C-20.24124052 14.5348677 -20.24124052 14.5348677 -16.0625 7.875 C-13.22454157 4.75324572 -9.82900958 3.34505425 -5.953125 1.82421875 C-1.50137113 0.03064023 -1.50137113 0.03064023 0 0 Z " fill="#E3A24E" transform="translate(199.0625,75.9375)"/>
<path d="M0 0 C0.33 0 0.66 0 1 0 C1.0825 1.27875 1.165 2.5575 1.25 3.875 C1.45998665 6.07451321 1.45998665 6.07451321 2 8 C2.66 8.33 3.32 8.66 4 9 C4.66 9.33 5.32 9.66 6 10 C6.69262678 12.69230731 6.81975373 15.20618276 7 18 C3 13.5 3 13.5 3 9 C1.68 8.67 0.36 8.34 -1 8 C-2.38226016 10.76452033 -2.09525387 13.0461363 -2.0625 16.125 C-2.04896484 17.76855469 -2.04896484 17.76855469 -2.03515625 19.4453125 C-2.02355469 20.28835937 -2.01195312 21.13140625 -2 22 C-3.95167729 19.07248407 -4.36553384 17.9152711 -4.75 14.5625 C-4.89695313 13.41974609 -4.89695313 13.41974609 -5.046875 12.25390625 C-4.9922559 9.627638 -4.41107943 8.19877103 -3 6 C-2.34 5.67 -1.68 5.34 -1 5 C-0.34444881 2.47266765 -0.34444881 2.47266765 0 0 Z " fill="#EBA549" transform="translate(188,103)"/>
<path d="M0 0 C0.99 0 1.98 0 3 0 C3 0.99 3 1.98 3 3 C2.01 3.495 2.01 3.495 1 4 C0.26410501 6.20566764 0.26410501 6.20566764 -0.3125 8.875 C-1.85556298 14.94385079 -4.25408053 20.38877327 -7 26 C-8.3805087 22.23331402 -7.59568159 19.55210827 -6.5625 15.75 C-6.27503906 14.67234375 -5.98757813 13.5946875 -5.69140625 12.484375 C-5.46324219 11.66453125 -5.23507812 10.8446875 -5 10 C-4.34 10 -3.68 10 -3 10 C-3 8.68 -3 7.36 -3 6 C-2.34 6 -1.68 6 -1 6 C-1.020625 5.195625 -1.04125 4.39125 -1.0625 3.5625 C-1 1 -1 1 0 0 Z " fill="#F0A23A" transform="translate(266,116)"/>
<path d="M0 0 C0.66 0 1.32 0 2 0 C2 2.97 2 5.94 2 9 C2.99 9 3.98 9 5 9 C5 9.66 5 10.32 5 11 C6.258125 10.62875 7.51625 10.2575 8.8125 9.875 C10.95703125 9.2421875 10.95703125 9.2421875 13 9 C13.99 9.66 14.98 10.32 16 11 C13.39813892 13.60186108 12.17645645 13.29810177 8.5625 13.3125 C7.11037109 13.33763672 7.11037109 13.33763672 5.62890625 13.36328125 C3 13 3 13 1.1640625 11.8046875 C-0.40893841 9.36600824 -0.29958194 7.68926982 -0.1875 4.8125 C-0.16042969 3.91144531 -0.13335937 3.01039062 -0.10546875 2.08203125 C-0.07066406 1.39496094 -0.03585938 0.70789063 0 0 Z " fill="#EB9D3B" transform="translate(208,119)"/>
<path d="M0 0 C13.6332574 -0.738041 13.6332574 -0.738041 20 4 C19.01 4.33 18.02 4.66 17 5 C16.38125 4.67 15.7625 4.34 15.125 4 C12.29453665 2.66801725 11.05656917 3.33552844 8 4 C4.66509473 4.0973321 1.33549903 4.05829027 -2 4 C-2.33 3.34 -2.66 2.68 -3 2 C-2.01 2 -1.02 2 0 2 C0 1.34 0 0.68 0 0 Z " fill="#F4A13C" transform="translate(654,99)"/>
<path d="M0 0 C1.9375 0.3125 1.9375 0.3125 4 1 C5.1966746 4.59002381 5.05505768 6.38265938 4 10 C0.70636647 12.74469461 -1.76464012 13.36303085 -6 13 C-5.38125 12.278125 -4.7625 11.55625 -4.125 10.8125 C-1.40736132 7.21562528 0 4.52854666 0 0 Z " fill="#E0B170" transform="translate(401,147)"/>
<path d="M0 0 C0.66 0.66 1.32 1.32 2 2 C-0.97851562 2.34179688 -0.97851562 2.34179688 -3.95703125 2.68359375 C-6.19396393 2.97170735 -6.19396393 2.97170735 -9 4 C-10.89470816 4.0685495 -12.7916834 4.08480372 -14.6875 4.0625 C-15.68136719 4.05347656 -16.67523437 4.04445313 -17.69921875 4.03515625 C-18.83810547 4.01775391 -18.83810547 4.01775391 -20 4 C-20 4.66 -20 5.32 -20 6 C-21.32 5.67 -22.64 5.34 -24 5 C-19.00464488 -1.2017164 -7.33897331 -0.47348215 0 0 Z " fill="#F4A034" transform="translate(768,99)"/>
<path d="M0 0 C0.78375 0.268125 1.5675 0.53625 2.375 0.8125 C4.169375 1.4003125 4.169375 1.4003125 6 2 C6.680625 2.26425781 7.36125 2.52851563 8.0625 2.80078125 C15.9876447 5.62545276 23.70893375 5.27774043 32 5 C30.1875 7 30.1875 7 28 9 C27.01 9 26.02 9 25 9 C25 8.34 25 7.68 25 7 C24.3709375 7.01160156 23.741875 7.02320313 23.09375 7.03515625 C7.72186047 7.1972093 7.72186047 7.1972093 3 3 C2.01 2.67 1.02 2.34 0 2 C0 1.34 0 0.68 0 0 Z " fill="#E4A04C" transform="translate(236,179)"/>
<path d="M0 0 C0 0.33 0 0.66 0 1 C-0.85464844 0.91621094 -1.70929687 0.83242187 -2.58984375 0.74609375 C-3.69457031 0.64425781 -4.79929687 0.54242188 -5.9375 0.4375 C-7.59072266 0.28087891 -7.59072266 0.28087891 -9.27734375 0.12109375 C-10.17582031 0.08113281 -11.07429687 0.04117188 -12 0 C-12.33 0.33 -12.66 0.66 -13 1 C-15.07926529 1.21145071 -17.1641172 1.36904772 -19.25 1.5 C-23.25822468 1.75391469 -27.07947882 2.11567191 -31 3 C-30 1 -30 1 -27.6640625 0.1484375 C-18.10451473 -2.28445512 -9.42807545 -3.3522046 0 0 Z " fill="#D9C2A7" transform="translate(773,106)"/>
<path d="M0 0 C0.66 0.33 1.32 0.66 2 1 C2 4 2 4 1 6 C0.34 6 -0.32 6 -1 6 C-1 6.66 -1 7.32 -1 8 C-2.65002828 9.35386936 -4.3174387 10.68678142 -6 12 C-6.33 12.66 -6.66 13.32 -7 14 C-7.66 14 -8.32 14 -9 14 C-8.50128936 9.54326841 -6.97995638 7.42312822 -3.9375 4.1875 C-3.20402344 3.39730469 -2.47054687 2.60710937 -1.71484375 1.79296875 C-1.14894531 1.20128906 -0.58304688 0.60960938 0 0 Z " fill="#DD9D4F" transform="translate(644,102)"/>
<path d="M0 0 C-0.99 0.33 -1.98 0.66 -3 1 C-3.86625 0.525625 -4.7325 0.05125 -5.625 -0.4375 C-13.0390328 -3.86992259 -22.08157303 -1.7503078 -30 -1 C-22.28252655 -8.71747345 -8.17252859 -4.69163678 0 0 Z " fill="#DFA459" transform="translate(777,102)"/>
<path d="M0 0 C0.66 0.33 1.32 0.66 2 1 C1.84402344 1.67546875 1.68804687 2.3509375 1.52734375 3.046875 C0.70170597 7.67044655 0.6073542 12.33001179 0.37890625 17.015625 C0.25386719 18.00046875 0.12882813 18.9853125 0 20 C-0.66 20.33 -1.32 20.66 -2 21 C-2.33 14.4 -2.66 7.8 -3 1 C-2.01 1.495 -2.01 1.495 -1 2 C-0.67 1.34 -0.34 0.68 0 0 Z " fill="#F2A542" transform="translate(211,69)"/>
<path d="M0 0 C1.32 0.33 2.64 0.66 4 1 C3.2265625 2.0828125 3.2265625 2.0828125 2.4375 3.1875 C0.78557018 6.4195366 0.93648325 7.61608307 2 11 C0.02 11.99 0.02 11.99 -2 13 C-4.42857143 5.57142857 -4.42857143 5.57142857 -3 2 C-2.01 2 -1.02 2 0 2 C0 1.34 0 0.68 0 0 Z " fill="#D1C9BE" transform="translate(414,144)"/>
<path d="M0 0 C0.33 0 0.66 0 1 0 C1 4.29 1 8.58 1 13 C-1 13 -3 13 -5 13 C-5 12.34 -5 11.68 -5 11 C-5.99 10.67 -6.98 10.34 -8 10 C-4.93882432 7.37613513 -4.26826873 7 0 7 C0 4.69 0 2.38 0 0 Z " fill="#D4D5D6" transform="translate(422,221)"/>
<path d="M0 0 C1 2 1 2 1 4 C1.99 5.485 1.99 5.485 3 7 C2.01 8.485 2.01 8.485 1 10 C-0.32 10 -1.64 10 -3 10 C-3.99 10.495 -3.99 10.495 -5 11 C-5 10.34 -5 9.68 -5 9 C-6.65 9 -8.3 9 -10 9 C-9.278125 8.443125 -8.55625 7.88625 -7.8125 7.3125 C-5.02542701 5.02090666 -2.51358472 2.58540143 0 0 Z " fill="#F0A13E" transform="translate(233,131)"/>
<path d="M0 0 C2.0081326 0.28020455 4.0075675 0.62406934 6 1 C8 1.33333333 10 1.66666667 12 2 C12 2.33 12 2.66 12 3 C11.04287109 3.09087891 11.04287109 3.09087891 10.06640625 3.18359375 C8.82697266 3.30927734 8.82697266 3.30927734 7.5625 3.4375 C6.73878906 3.51871094 5.91507812 3.59992188 5.06640625 3.68359375 C3.01337975 3.78930815 3.01337975 3.78930815 2 5 C3.65 5 5.3 5 7 5 C7 5.66 7 6.32 7 7 C4.36 7 1.72 7 -1 7 C-1.04254356 5.00045254 -1.04080783 2.99958364 -1 1 C-0.67 0.67 -0.34 0.34 0 0 Z " fill="#D9D9D4" transform="translate(377,180)"/>
<path d="M0 0 C2.0625 0.4375 2.0625 0.4375 4 1 C3.01 1.495 3.01 1.495 2 2 C1.52658767 4.54366252 1.52658767 4.54366252 1.375 7.5625 C1.30152344 8.64144531 1.22804688 9.72039062 1.15234375 10.83203125 C0.97274484 14.56676764 0.92811758 18.26211414 1 22 C0.34 22.33 -0.32 22.66 -1 23 C-1.02887512 19.35418313 -1.04675585 15.70839537 -1.0625 12.0625 C-1.07087891 11.02158203 -1.07925781 9.98066406 -1.08789062 8.90820312 C-1.09272461 7.42416992 -1.09272461 7.42416992 -1.09765625 5.91015625 C-1.10289307 4.99371338 -1.10812988 4.07727051 -1.11352539 3.13305664 C-1 1 -1 1 0 0 Z " fill="#D1D1D3" transform="translate(685,206)"/>
<path d="M0 0 C3.48030854 -0.55712449 6.54540915 -0.78653631 10 0 C12.66561407 2.67082035 14.35182607 5.62325341 16 9 C15.34 9.66 14.68 10.32 14 11 C13.6596875 10.52949219 13.319375 10.05898437 12.96875 9.57421875 C9.10948961 4.61671139 6.01920088 2.76424854 0 1 C0 0.67 0 0.34 0 0 Z " fill="#D59746" transform="translate(770,105)"/>
<path d="M0 0 C1.65 0 3.3 0 5 0 C5 0.66 5 1.32 5 2 C6.32 2.66 7.64 3.32 9 4 C8.34 4.66 7.68 5.32 7 6 C5.96157435 8.31648799 4.9578025 10.64903024 4 13 C3.01 13 2.02 13 1 13 C1.66 11.02 2.32 9.04 3 7 C3.66 7 4.32 7 5 7 C5 6.34 5 5.68 5 5 C4.01 4.67 3.02 4.34 2 4 C2 3.01 2 2.02 2 1 C1.34 0.67 0.68 0.34 0 0 Z " fill="#E1A655" transform="translate(394,145)"/>
<path d="M0 0 C4.95 0.99 4.95 0.99 10 2 C9.55005243 3.79379098 9.08975857 5.58498928 8.625 7.375 C8.36976563 8.37273437 8.11453125 9.37046875 7.8515625 10.3984375 C7 13 7 13 5 15 C2.875 14.625 2.875 14.625 1 14 C2.65 13.34 4.3 12.68 6 12 C6.26932521 7.34947128 6.26932521 7.34947128 5 3 C2.47266765 2.34444881 2.47266765 2.34444881 0 2 C0 1.34 0 0.68 0 0 Z " fill="#DDBD92" transform="translate(399,145)"/>
<path d="M0 0 C2.20937345 2.20937345 3.19844514 4.19859778 4.5625 7 C4.99691406 7.886875 5.43132812 8.77375 5.87890625 9.6875 C6.43384766 10.8321875 6.43384766 10.8321875 7 12 C7.33 12.66 7.66 13.32 8 14 C3.25 15.125 3.25 15.125 1 14 C0.34 14.66 -0.32 15.32 -1 16 C-0.67 14.35 -0.34 12.7 0 11 C0.99 10.67 1.98 10.34 3 10 C2.2575 8.63875 2.2575 8.63875 1.5 7.25 C0 4 0 4 0 0 Z " fill="#F3A345" transform="translate(195,121)"/>
<path d="M0 0 C-16.53089888 11 -16.53089888 11 -22 11 C-22 10.01 -22 9.02 -22 8 C-20.205625 7.5978125 -20.205625 7.5978125 -18.375 7.1875 C-13.17877013 5.87922936 -9.06176833 4.5926525 -6 0 C-3 -1 -3 -1 0 0 Z " fill="#E6A44B" transform="translate(304,187)"/>
<path d="M0 0 C0.66 0 1.32 0 2 0 C2.33591896 2.27045229 2.66865065 4.54137633 3 6.8125 C3.185625 8.07707031 3.37125 9.34164062 3.5625 10.64453125 C4 14 4 14 4 17 C4.66 17 5.32 17 6 17 C6 18.98 6 20.96 6 23 C2.9755936 19.60283762 2.20337623 16.47917212 1.3125 12.0625 C1.06113281 10.85722656 0.80976563 9.65195313 0.55078125 8.41015625 C0.08342447 5.51652173 -0.11630685 2.91874819 0 0 Z " fill="#EAA046" transform="translate(210,153)"/>
<path d="M0 0 C0.99 0 1.98 0 3 0 C6.19703098 3.90748231 6.28999491 7.07008655 6 12 C4.02 12.99 4.02 12.99 2 14 C1.67 13.34 1.34 12.68 1 12 C1.66 12 2.32 12 3 12 C2.01 8.04 1.02 4.08 0 0 Z " fill="#DABF99" transform="translate(411,87)"/>
<path d="M0 0 C1.71367057 3.42734115 2.25357053 4.57855174 2.4140625 8.109375 C2.45273437 8.86347656 2.49140625 9.61757812 2.53125 10.39453125 C2.5621875 11.17183594 2.593125 11.94914062 2.625 12.75 C2.66367187 13.54277344 2.70234375 14.33554688 2.7421875 15.15234375 C2.836108 17.10119416 2.91912822 19.05056451 3 21 C2.01 21 1.02 21 0 21 C0 14.07 0 7.14 0 0 Z " fill="#F0A149" transform="translate(329,112)"/>
<path d="M0 0 C0.33 0 0.66 0 1 0 C1.144375 1.0725 1.28875 2.145 1.4375 3.25 C1.83749442 5.91662949 2.27591924 8.41399729 3 11 C1.0625 11.5625 1.0625 11.5625 -1 12 C-2.58894072 10.41105928 -2.16998411 8.75198576 -2.1875 6.5625 C-2.20167969 5.75941406 -2.21585938 4.95632812 -2.23046875 4.12890625 C-2 2 -2 2 0 0 Z " fill="#DCDCDD" transform="translate(593,230)"/>
<path d="M0 0 C1.45922693 0.11409593 2.91740598 0.24165544 4.375 0.375 C5.59316406 0.47941406 5.59316406 0.47941406 6.8359375 0.5859375 C9 1 9 1 11 3 C9.35 3 7.7 3 6 3 C6.99 3.33 7.98 3.66 9 4 C9 4.66 9 5.32 9 6 C4.545 5.01 4.545 5.01 0 4 C0 2.68 0 1.36 0 0 Z " fill="#D7D7D9" transform="translate(427,229)"/>
<path d="M0 0 C6.6 0 13.2 0 20 0 C15.39742667 3.45192999 14.37485612 3.30048306 8.875 2.8125 C7.63492187 2.71582031 6.39484375 2.61914062 5.1171875 2.51953125 C2 2 2 2 0 0 Z " fill="#CACACA" transform="translate(414,180)"/>
<path d="M0 0 C1.65 0.33 3.3 0.66 5 1 C5 1.66 5 2.32 5 3 C4.34 3 3.68 3 3 3 C3 3.66 3 4.32 3 5 C3.66 5 4.32 5 5 5 C5.33 6.65 5.66 8.3 6 10 C5.34 10 4.68 10 4 10 C3.67 9.01 3.34 8.02 3 7 C-0.51190809 5.77030122 -0.51190809 5.77030122 -4 5 C-4 4.01 -4 3.02 -4 2 C-2.68 2 -1.36 2 0 2 C0 1.34 0 0.68 0 0 Z " fill="#EDA041" transform="translate(242,81)"/>
<path d="M0 0 C2.50037734 2.17424117 3.43628586 3.73045798 4 7 C3.01 7.495 3.01 7.495 2 8 C2.99 9.98 3.98 11.96 5 14 C2.67241689 13.06896676 1.25642868 12.34617872 -0.25 10.3125 C-1.27939912 7.13851939 -1.18742851 4.31123706 -1 1 C-0.67 0.67 -0.34 0.34 0 0 Z " fill="#D9DADA" transform="translate(661,219)"/>
<path d="M0 0 C1.22589844 0.01353516 1.22589844 0.01353516 2.4765625 0.02734375 C3.41628906 0.04474609 3.41628906 0.04474609 4.375 0.0625 C4.705 0.7225 5.035 1.3825 5.375 2.0625 C3.725 2.0625 2.075 2.0625 0.375 2.0625 C0.375 2.7225 0.375 3.3825 0.375 4.0625 C-1.935 4.3925 -4.245 4.7225 -6.625 5.0625 C-6.625 3.7425 -6.625 2.4225 -6.625 1.0625 C-4.21954362 -0.14022819 -2.67503047 -0.03821472 0 0 Z " fill="#DDDDDD" transform="translate(621.625,213.9375)"/>
<path d="M0 0 C2.475 0.495 2.475 0.495 5 1 C5.144375 2.0725 5.28875 3.145 5.4375 4.25 C5.83749442 6.91662949 6.27591924 9.41399729 7 12 C5.35 12.66 3.7 13.32 2 14 C2 13.01 2 12.02 2 11 C2.66 11 3.32 11 4 11 C3.4740625 9.63875 3.4740625 9.63875 2.9375 8.25 C2.03531221 5.12241564 1.86618493 3.94791919 3 1 C2.01 0.67 1.02 0.34 0 0 Z " fill="#D5D5D5" transform="translate(447,206)"/>
<path d="M0 0 C4.22222222 6.33333333 4.22222222 6.33333333 3.625 10.8125 C3.41875 11.534375 3.2125 12.25625 3 13 C0.96166576 11.7260411 -1.03852126 10.38938077 -3 9 C-3 8.34 -3 7.68 -3 7 C-2.34 6.67 -1.68 6.34 -1 6 C-0.34227572 2.97065509 -0.34227572 2.97065509 0 0 Z " fill="#F3A545" transform="translate(325,100)"/>
<path d="M0 0 C1.98 0 3.96 0 6 0 C5.67 2.31 5.34 4.62 5 7 C4.01 7.33 3.02 7.66 2 8 C0 7 0 7 -0.6875 5.125 C-1 3 -1 3 0 0 Z " fill="#F4A935" transform="translate(183,102)"/>
<path d="M0 0 C1.79244141 0.01740234 1.79244141 0.01740234 3.62109375 0.03515625 C5.41740234 0.04869141 5.41740234 0.04869141 7.25 0.0625 C8.17683594 0.07410156 9.10367187 0.08570312 10.05859375 0.09765625 C10.38859375 0.75765625 10.71859375 1.41765625 11.05859375 2.09765625 C10.06279297 2.18853516 10.06279297 2.18853516 9.046875 2.28125 C2.50951294 2.89629132 2.50951294 2.89629132 -3.94140625 4.09765625 C-3.94140625 0.13085678 -3.94140625 0.13085678 0 0 Z " fill="#F0982B" transform="translate(473.94140625,100.90234375)"/>
<path d="M0 0 C0.66 0.33 1.32 0.66 2 1 C1.67 1.99 1.34 2.98 1 4 C-2.3 3.67 -5.6 3.34 -9 3 C-9 2.01 -9 1.02 -9 0 C-5.49142603 -1.16952466 -3.57280503 -0.76017128 0 0 Z " fill="#D6D6D6" transform="translate(440,223)"/>
<path d="M0 0 C0.66 0.33 1.32 0.66 2 1 C2 1.66 2 2.32 2 3 C3.51668956 3.75834478 5.03844893 4.50656045 6.5625 5.25 C9 7 9 7 9.8125 9.6875 C9.874375 10.450625 9.93625 11.21375 10 12 C5.30840284 8.61227103 0.9700218 5.21814817 -3 1 C-2.01 0.67 -1.02 0.34 0 0 Z " fill="#F1AC4C" transform="translate(291,81)"/>
<path d="M0 0 C0.33 0 0.66 0 1 0 C1.1875 3.375 1.1875 3.375 1 7 C-2.71575751 9.47717167 -4.59986738 9.30345742 -9 9 C-11.9375 8 -11.9375 8 -14 7 C-14 6.34 -14 5.68 -14 5 C-11.625 4.875 -11.625 4.875 -9 5 C-8.34 5.66 -7.68 6.32 -7 7 C-3.90073181 6.67801034 -3.90073181 6.67801034 -1 6 C-0.67 4.02 -0.34 2.04 0 0 Z " fill="#E4A148" transform="translate(204,79)"/>
<path d="M0 0 C0 0.66 0 1.32 0 2 C-1.62626404 3.38232443 -3.2925002 4.71937515 -5 6 C-5.33 5.34 -5.66 4.68 -6 4 C-6.33 4.66 -6.66 5.32 -7 6 C-7.99 6 -8.98 6 -10 6 C-10.33 4.68 -10.66 3.36 -11 2 C-3.375 0 -3.375 0 0 0 Z " fill="#D6CFC3" transform="translate(750,107)"/>
<path d="M0 0 C0.33 0 0.66 0 1 0 C1.1875 2.375 1.1875 2.375 1 5 C-2 7 -2 7 -5.1875 6.625 C-6.115625 6.41875 -7.04375 6.2125 -8 6 C-6 3 -6 3 -2.875 2.3125 C-1.92625 2.209375 -0.9775 2.10625 0 2 C0 1.34 0 0.68 0 0 Z " fill="#E99A3D" transform="translate(400,94)"/>
<path d="M0 0 C8.35740901 -0.32098157 15.22270481 -0.21819111 23 3 C20.50331711 4.24834144 19.18670849 3.95155125 16.4375 3.625 C15.63183594 3.53476563 14.82617188 3.44453125 13.99609375 3.3515625 C12 3 12 3 11 2 C9.15108054 1.76636119 7.29511969 1.58696365 5.4375 1.4375 C4.42558594 1.35371094 3.41367187 1.26992187 2.37109375 1.18359375 C1.19740234 1.09271484 1.19740234 1.09271484 0 1 C0 0.67 0 0.34 0 0 Z " fill="#D7BC9B" transform="translate(476,104)"/>
<path d="M0 0 C0.99 0.33 1.98 0.66 3 1 C4.16063604 5.25566547 3.76173392 8.6835078 3 13 C0.69 13.33 -1.62 13.66 -4 14 C-2.7625 13.2265625 -2.7625 13.2265625 -1.5 12.4375 C1.36655395 10.16195208 1.36655395 10.16195208 1.375 6.4375 C1.12509016 3.0228032 1.12509016 3.0228032 0 0 Z " fill="#E4A966" transform="translate(405,88)"/>
<path d="M0 0 C0.99 0.66 1.98 1.32 3 2 C2.67 2.99 2.34 3.98 2 5 C-0.0625 5.6875 -0.0625 5.6875 -2 6 C-2 5.67 -2 5.34 -2 5 C-3.65 4.67 -5.3 4.34 -7 4 C-7 3.34 -7 2.68 -7 2 C-3.6875 0.875 -3.6875 0.875 0 0 Z " fill="#DBDBDB" transform="translate(676,228)"/>
<path d="M0 0 C1.32 0.33 2.64 0.66 4 1 C4.17835515 5.54805635 3.99785435 8.8794254 2 13 C1.67 13 1.34 13 1 13 C1.01160156 12.31292969 1.02320313 11.62585938 1.03515625 10.91796875 C1.04417969 10.01691406 1.05320312 9.11585937 1.0625 8.1875 C1.07410156 7.29417969 1.08570313 6.40085937 1.09765625 5.48046875 C1.11009967 2.86586209 1.11009967 2.86586209 0 0 Z " fill="#DDB176" transform="translate(407,88)"/>
<path d="M0 0 C1.65 1.65 3.3 3.3 5 5 C4.67 5.99 4.34 6.98 4 8 C3.649375 7.566875 3.29875 7.13375 2.9375 6.6875 C0.21514365 4.31641544 -2.64758216 3.3283165 -6 2 C-6 1.67 -6 1.34 -6 1 C-4.7934375 1.0309375 -4.7934375 1.0309375 -3.5625 1.0625 C-1.06645115 1.29633621 -1.06645115 1.29633621 0 0 Z " fill="#D3975B" transform="translate(568,105)"/>
<path d="M0 0 C-0.33 0.99 -0.66 1.98 -1 3 C-3.5625 4.1875 -3.5625 4.1875 -6 5 C-5.67 5.99 -5.34 6.98 -5 8 C-6.32 8 -7.64 8 -9 8 C-8.875 6.25 -8.875 6.25 -8 4 C-2.77777778 0 -2.77777778 0 0 0 Z " fill="#E1A15E" transform="translate(747,101)"/>
<path d="M0 0 C2.0625 0.4375 2.0625 0.4375 4 1 C4.33 3.64 4.66 6.28 5 9 C3.68 9.33 2.36 9.66 1 10 C1 7.36 1 4.72 1 2 C0.34 1.67 -0.32 1.34 -1 1 C-0.67 0.67 -0.34 0.34 0 0 Z " fill="#DBDBDD" transform="translate(626,224)"/>
<path d="M0 0 C0.99 0 1.98 0 3 0 C1.40956621 5.08938811 -1.7446951 8.87456643 -5 13 C-5.33 12.01 -5.66 11.02 -6 10 C-5.34 9.67 -4.68 9.34 -4 9 C-3.67 8.01 -3.34 7.02 -3 6 C-2.34 6 -1.68 6 -1 6 C-0.67 4.02 -0.34 2.04 0 0 Z " fill="#EEA64B" transform="translate(321,162)"/>
<path d="M0 0 C0.66 0.33 1.32 0.66 2 1 C1.01 3.31 0.02 5.62 -1 8 C-3.64 8 -6.28 8 -9 8 C-9 7.34 -9 6.68 -9 6 C-8.071875 5.938125 -7.14375 5.87625 -6.1875 5.8125 C-2.8109337 5.31172896 -2.8109337 5.31172896 -1.125 2.4375 C-0.75375 1.633125 -0.3825 0.82875 0 0 Z " fill="#E3E3E3" transform="translate(531,226)"/>
<path d="M0 0 C3.39914975 1.13304992 4.05254451 2.12518475 6 5 C6.66 4.67 7.32 4.34 8 4 C8.33 5.32 8.66 6.64 9 8 C8.01 8.33 7.02 8.66 6 9 C5.34 8.67 4.68 8.34 4 8 C4 7.34 4 6.68 4 6 C3.34 6 2.68 6 2 6 C2 4.68 2 3.36 2 2 C1.34 2 0.68 2 0 2 C0 1.34 0 0.68 0 0 Z " fill="#E4CBB6" transform="translate(503,111)"/>
<path d="M0 0 C0.33 0 0.66 0 1 0 C1 2.64 1 5.28 1 8 C-2.465 9.485 -2.465 9.485 -6 11 C-6 10.34 -6 9.68 -6 9 C-5.34 8.67 -4.68 8.34 -4 8 C-2.87775145 6.11986894 -2.87775145 6.11986894 -1.875 3.9375 C-1.34519531 2.83728516 -1.34519531 2.83728516 -0.8046875 1.71484375 C-0.53914063 1.14894531 -0.27359375 0.58304687 0 0 Z " fill="#E0A658" transform="translate(406,91)"/>
<path d="M0 0 C0.33 0 0.66 0 1 0 C1.36279456 1.28926992 1.71496698 2.58153272 2.0625 3.875 C2.25972656 4.59429687 2.45695312 5.31359375 2.66015625 6.0546875 C3 8 3 8 2 10 C1.34 9.67 0.68 9.34 0 9 C0.33 8.34 0.66 7.68 1 7 C0.34 7 -0.32 7 -1 7 C-1.33 7.66 -1.66 8.32 -2 9 C-2.33 7.02 -2.66 5.04 -3 3 C-2.01 3.33 -1.02 3.66 0 4 C-0.33 3.01 -0.66 2.02 -1 1 C-0.67 0.67 -0.34 0.34 0 0 Z " fill="#FAA138" transform="translate(272,136)"/>
<path d="M0 0 C0 4.33847957 -0.09971916 6.99059421 -3.0625 10.3125 C-3.701875 10.869375 -4.34125 11.42625 -5 12 C-4.52389341 7.00088076 -2.96837781 4.02167317 0 0 Z " fill="#CE9450" transform="translate(463,106)"/>
<path d="M0 0 C2.0245738 1.93254772 3.42105792 3.63158688 5 6 C4.625 8.1875 4.625 8.1875 4 10 C3.401875 9.236875 2.80375 8.47375 2.1875 7.6875 C0.53040668 5.6516425 -1.10297674 3.8021721 -3 2 C-2.34 2 -1.68 2 -1 2 C-0.67 1.34 -0.34 0.68 0 0 Z " fill="#CB9551" transform="translate(678,106)"/>
<path d="M0 0 C0.99 0 1.98 0 3 0 C3 2.97 3 5.94 3 9 C2.01 8.67 1.02 8.34 0 8 C0 5.36 0 2.72 0 0 Z " fill="#DA9B3F" transform="translate(391,102)"/>
<path d="M0 0 C5.06998019 0.65419099 9.41990777 2.8546409 14 5 C14 5.33 14 5.66 14 6 C10.05907441 6.17913298 7.3255844 6.21705627 4 4 C2.62913085 2.70529025 1.28659163 1.37849103 0 0 Z " fill="#F1AD51" transform="translate(281,61)"/>
<path d="M0 0 C0.90492188 0.02320313 1.80984375 0.04640625 2.7421875 0.0703125 C4.10730469 0.09738281 4.10730469 0.09738281 5.5 0.125 C6.19867187 0.14820313 6.89734375 0.17140625 7.6171875 0.1953125 C6.41015625 1.71484375 6.41015625 1.71484375 4.6171875 3.1953125 C2.35546875 3.26953125 2.35546875 3.26953125 -0.0703125 2.8828125 C-1.28267578 2.70298828 -1.28267578 2.70298828 -2.51953125 2.51953125 C-3.13441406 2.41253906 -3.74929688 2.30554688 -4.3828125 2.1953125 C-2.3828125 0.1953125 -2.3828125 0.1953125 0 0 Z " fill="#CACACA" transform="translate(777.3828125,179.8046875)"/>
<path d="M0 0 C0.99 0.33 1.98 0.66 3 1 C2.979375 1.94875 2.95875 2.8975 2.9375 3.875 C2.77448174 6.90666283 2.77448174 6.90666283 4 9 C3.01 9.33 2.02 9.66 1 10 C-0.04005702 6.61981469 -0.08004482 3.5219721 0 0 Z " fill="#D4C3AD" transform="translate(416,92)"/>
<path d="M0 0 C0.99 0.99 1.98 1.98 3 3 C3.66 2.67 4.32 2.34 5 2 C5.33 3.98 5.66 5.96 6 8 C5.34 8 4.68 8 4 8 C4 7.34 4 6.68 4 6 C2.68 6 1.36 6 0 6 C0 4.02 0 2.04 0 0 Z " fill="#D5C5B1" transform="translate(679,112)"/>
<path d="M0 0 C0.33 0.99 0.66 1.98 1 3 C-0.98 4.32 -2.96 5.64 -5 7 C-5 5.02 -5 3.04 -5 1 C-3 0 -3 0 0 0 Z " fill="#D5D4D6" transform="translate(527,119)"/>
<path d="M0 0 C0.66 0.33 1.32 0.66 2 1 C1.67 1.99 1.34 2.98 1 4 C0.34 4 -0.32 4 -1 4 C-1.66 5.32 -2.32 6.64 -3 8 C-3.75 6.25 -3.75 6.25 -4 4 C-2.0625 1.75 -2.0625 1.75 0 0 Z " fill="#D1964B" transform="translate(529,108)"/>
<path d="M0 0 C0 0.66 0 1.32 0 2 C-2.5 3.625 -2.5 3.625 -5 5 C-5.99 4.01 -6.98 3.02 -8 2 C-4.77208445 -0.1519437 -3.71599191 -0.20086443 0 0 Z " fill="#E7A54B" transform="translate(654,99)"/>
<path d="M0 0 C0.66 0.66 1.32 1.32 2 2 C-1.465 3.485 -1.465 3.485 -5 5 C-5 4.34 -5 3.68 -5 3 C-6.65 3 -8.3 3 -10 3 C-6.54153783 0.69435855 -5.0333286 0.91231894 -1 1 C-0.67 0.67 -0.34 0.34 0 0 Z " fill="#E5E5E7" transform="translate(441,230)"/>
<path d="M0 0 C0 3.39593478 -0.52165948 4.06619881 -2.5 6.6875 C-2.9640625 7.31011719 -3.428125 7.93273437 -3.90625 8.57421875 C-4.2671875 9.04472656 -4.628125 9.51523438 -5 10 C-5.625 8.1875 -5.625 8.1875 -6 6 C-4.13216429 3.19824644 -2.69725519 1.88807863 0 0 Z " fill="#DBCBB4" transform="translate(462,113)"/>
<path d="M0 0 C0.33 1.32 0.66 2.64 1 4 C0.34 4 -0.32 4 -1 4 C-1.33 6.31 -1.66 8.62 -2 11 C-2.66 10.67 -3.32 10.34 -4 10 C-4 8.02 -4 6.04 -4 4 C-3.01 3.67 -2.02 3.34 -1 3 C-0.67 2.01 -0.34 1.02 0 0 Z " fill="#DBCBBD" transform="translate(638,113)"/>
<path d="M0 0 C1.65 0 3.3 0 5 0 C2.65408148 2.7710688 0.85223799 3.52059284 -2.6875 4.1875 C-3.49574219 4.34605469 -4.30398438 4.50460938 -5.13671875 4.66796875 C-6.05904297 4.83232422 -6.05904297 4.83232422 -7 5 C-7 4.34 -7 3.68 -7 3 C-3.535 2.505 -3.535 2.505 0 2 C0 1.34 0 0.68 0 0 Z " fill="#DD903E" transform="translate(748,103)"/>
<path d="M0 0 C0 0.66 0 1.32 0 2 C-2.97 2 -5.94 2 -9 2 C-9.33 1.34 -9.66 0.68 -10 0 C-6.42355152 -1.2380014 -3.66305234 -0.74926071 0 0 Z " fill="#EE9729" transform="translate(661,101)"/>
<path d="M0 0 C2.97 0 5.94 0 9 0 C9 0.66 9 1.32 9 2 C5.62182575 2.84454356 3.32534757 3.10844919 0 2 C0 1.34 0 0.68 0 0 Z " fill="#DEDEDF" transform="translate(408,232)"/>
<path d="M0 0 C0.66 0.66 1.32 1.32 2 2 C1.01 3.32 0.02 4.64 -1 6 C-3.64 5.67 -6.28 5.34 -9 5 C-9 4.67 -9 4.34 -9 4 C-7.88625 3.71125 -6.7725 3.4225 -5.625 3.125 C-1.99708908 2.30758671 -1.99708908 2.30758671 0 0 Z " fill="#E4E5E6" transform="translate(488,228)"/>
<path d="M0 0 C0.33 0 0.66 0 1 0 C1 3.3 1 6.6 1 10 C0.01 10 -0.98 10 -2 10 C-1.34 6.7 -0.68 3.4 0 0 Z " fill="#E9E9EA" transform="translate(544,224)"/>
<path d="M0 0 C1.32 0 2.64 0 4 0 C4 1.98 4 3.96 4 6 C3.01 6 2.02 6 1 6 C0.67 4.02 0.34 2.04 0 0 Z " fill="#E2E2E2" transform="translate(472,206)"/>
<path d="M0 0 C1.65 0.33 3.3 0.66 5 1 C3.35 2.65 1.7 4.3 0 6 C-0.66 5.67 -1.32 5.34 -2 5 C-2 4.01 -2 3.02 -2 2 C-1.34 2 -0.68 2 0 2 C0 1.34 0 0.68 0 0 Z " fill="#F1A43F" transform="translate(309,176)"/>
<path d="M0 0 C0.99 0 1.98 0 3 0 C4.38671875 1.53125 4.38671875 1.53125 5.6875 3.5 C6.12449219 4.1496875 6.56148437 4.799375 7.01171875 5.46875 C7.33785156 5.9740625 7.66398438 6.479375 8 7 C7.67 7.66 7.34 8.32 7 9 C5.83037314 7.69013727 4.66437056 6.3770374 3.5 5.0625 C2.8503125 4.33160156 2.200625 3.60070312 1.53125 2.84765625 C0 1 0 1 0 0 Z " fill="#EBA848" transform="translate(190,135)"/>
<path d="M0 0 C0.66 1.32 1.32 2.64 2 4 C1.01 4.99 0.02 5.98 -1 7 C-1.66 6.67 -2.32 6.34 -3 6 C-2.625 3.5625 -2.625 3.5625 -2 1 C-1.34 0.67 -0.68 0.34 0 0 Z " fill="#F6A641" transform="translate(240,119)"/>
<path d="M0 0 C-1.0625 1.5 -1.0625 1.5 -3 3 C-6.6875 3.1875 -6.6875 3.1875 -10 3 C-9 1 -9 1 -6.6875 -0.1875 C-3.88010429 -1.03624754 -2.698065 -0.99928333 0 0 Z " fill="#DDC4B6" transform="translate(542,107)"/>
<path d="M0 0 C0.66 0 1.32 0 2 0 C1.67 1.65 1.34 3.3 1 5 C0.01 5.33 -0.98 5.66 -2 6 C-4.1875 4.5625 -4.1875 4.5625 -6 3 C-5.195625 2.87625 -4.39125 2.7525 -3.5625 2.625 C-2.716875 2.41875 -1.87125 2.2125 -1 2 C-0.67 1.34 -0.34 0.68 0 0 Z " fill="#E8E8E9" transform="translate(625,229)"/>
<path d="M0 0 C0.99 0.33 1.98 0.66 3 1 C3.33 2.65 3.66 4.3 4 6 C3.01 6 2.02 6 1 6 C0 5 0 5 -0.0625 2.4375 C-0.041875 1.633125 -0.02125 0.82875 0 0 Z " fill="#E5E5E7" transform="translate(614,226)"/>
<path d="M0 0 C5.75 1.625 5.75 1.625 8 5 C5 6 5 6 2.875 5.3125 C1 4 1 4 0.25 1.875 C0.1675 1.25625 0.085 0.6375 0 0 Z " fill="#D9D9D9" transform="translate(741,154)"/>
<path d="M0 0 C0.99 0 1.98 0 3 0 C3 2.64 3 5.28 3 8 C2.34 8 1.68 8 1 8 C0.67 5.36 0.34 2.72 0 0 Z " fill="#F2A94B" transform="translate(312,112)"/>
<path d="M0 0 C3.375 -0.125 3.375 -0.125 7 0 C7.66 0.66 8.32 1.32 9 2 C5.62182575 2.84454356 3.32534757 3.10844919 0 2 C0 1.34 0 0.68 0 0 Z " fill="#EE9529" transform="translate(490,102)"/>
<path d="M0 0 C0.99 0.66 1.98 1.32 3 2 C2.67 3.65 2.34 5.3 2 7 C0.68 6.67 -0.64 6.34 -2 6 C-1.34 4.02 -0.68 2.04 0 0 Z " fill="#E4E4E4" transform="translate(593,235)"/>
<path d="M0 0 C0.33 0.66 0.66 1.32 1 2 C1.99 2.33 2.98 2.66 4 3 C4 4.65 4 6.3 4 8 C2 6.8125 2 6.8125 0 5 C-0.25 2.3125 -0.25 2.3125 0 0 Z " fill="#D8D1D5" transform="translate(682,118)"/>
<path d="M0 0 C0.33 0.66 0.66 1.32 1 2 C-0.4375 4.625 -0.4375 4.625 -2 7 C-2.99 6.67 -3.98 6.34 -5 6 C-3.63016497 2.83884224 -3.0109362 2.0072908 0 0 Z " fill="#DDCDBB" transform="translate(531,110)"/>
<path d="M0 0 C0.33 0 0.66 0 1 0 C1.33 2.97 1.66 5.94 2 9 C1.01 8.67 0.02 8.34 -1 8 C-1.66 8.66 -2.32 9.32 -3 10 C-2.67 8.35 -2.34 6.7 -2 5 C-1.67 5 -1.34 5 -1 5 C-0.67 3.35 -0.34 1.7 0 0 Z " fill="#E69B3B" transform="translate(188,103)"/>
<path d="M0 0 C1.875 0.1875 1.875 0.1875 4 1 C5.25 3.5625 5.25 3.5625 6 6 C5.01 6 4.02 6 3 6 C0 2.66666667 0 2.66666667 0 0 Z " fill="#BF925B" transform="translate(780,109)"/>
<path d="M0 0 C1.32 0.33 2.64 0.66 4 1 C4.33 3.64 4.66 6.28 5 9 C2.67527795 6.14693203 1.2491742 3.45925163 0 0 Z " fill="#EDA449" transform="translate(305,98)"/>
<path d="M0 0 C0.66 0.33 1.32 0.66 2 1 C1.67 2.98 1.34 4.96 1 7 C-0.32 7.33 -1.64 7.66 -3 8 C-2.01 5.36 -1.02 2.72 0 0 Z " fill="#DEB581" transform="translate(404,150)"/>
<path d="M0 0 C0.99 0.33 1.98 0.66 3 1 C3 2.32 3 3.64 3 5 C1.35 4.67 -0.3 4.34 -2 4 C-2 3.34 -2 2.68 -2 2 C-1.34 2 -0.68 2 0 2 C0 1.34 0 0.68 0 0 Z " fill="#F2A33B" transform="translate(296,143)"/>
<path d="M0 0 C-1.8125 2 -1.8125 2 -4 4 C-4.99 4 -5.98 4 -7 4 C-7 3.01 -7 2.02 -7 1 C-4.53721199 -0.231394 -2.7204945 -0.07159196 0 0 Z " fill="#EB9D44" transform="translate(268,184)"/>
<path d="M0 0 C0.99 0 1.98 0 3 0 C2 2 1 4 0 6 C-0.66 6 -1.32 6 -2 6 C-1.125 1.125 -1.125 1.125 0 0 Z " fill="#C38E51" transform="translate(637,110)"/>
<path d="M0 0 C2.0625 1.75 2.0625 1.75 4 4 C3.75 6.25 3.75 6.25 3 8 C1.5 6.8125 1.5 6.8125 0 5 C-0.1875 2.3125 -0.1875 2.3125 0 0 Z " fill="#D09654" transform="translate(506,109)"/>
<path d="M0 0 C3.37503669 1.1858237 5.64722731 2.27573689 8 5 C6.35 5 4.7 5 3 5 C3 4.01 3 3.02 3 2 C2.01 2 1.02 2 0 2 C0 1.34 0 0.68 0 0 Z " fill="#DDC7B1" transform="translate(671,107)"/>
<path d="M0 0 C0 0.66 0 1.32 0 2 C-2.31 2.66 -4.62 3.32 -7 4 C-7 3.01 -7 2.02 -7 1 C-4.53721199 -0.231394 -2.7204945 -0.07159196 0 0 Z " fill="#D7D7D7" transform="translate(725,105)"/>
</svg>
